# Blender 4.3.2
# www.blender.org
mtllib model.mtl
o Island
v 114.049744 66.551544 114.049744
v 107.038490 66.551544 98.218437
v 100.433884 66.551544 74.952957
v 106.250023 67.064316 34.885788
v 96.188843 66.551529 8.267851
v 93.239319 66.551529 -17.062225
v 103.727425 66.551521 -42.417286
v 104.718781 66.551514 -71.788338
v 97.218895 66.551514 -99.475281
v 104.056007 66.551514 -110.749031
v 68.627571 66.551514 -110.071724
v 56.967117 66.551514 -97.292809
v 31.565575 66.551514 -104.432915
v 4.704238 66.551514 -110.042412
v -15.335070 57.566292 -98.349525
v -35.722298 66.551514 -102.330498
v -60.097214 66.551514 -93.525208
v -86.535751 66.551514 -101.302994
v -103.138695 66.551514 -109.877747
v -101.793678 66.551514 -82.598724
v -80.347763 66.551521 -61.357803
v -95.680695 66.551521 -39.844566
v -102.031471 66.551529 6.789234
v -93.570137 66.551537 27.671679
v -96.287819 66.551537 63.093971
v -100.918144 66.551544 104.393394
v -73.244583 66.551544 100.518700
v -41.127590 57.690857 81.757187
v -13.884937 66.551544 87.388405
v 21.836449 66.551544 94.176842
v 48.915512 66.504257 98.433510
v 63.471355 66.551544 94.603416
v 81.481903 66.551544 91.076805
v 97.814835 66.551544 107.250404
v 99.510071 45.270538 97.190109
v 93.493843 45.270538 83.605553
v 87.826553 45.270535 63.641872
v 93.042992 45.270531 31.683048
v 84.183952 45.270527 6.420601
v 81.653023 45.270523 -15.314673
v 90.652679 45.270519 -37.071384
v 91.503342 45.270515 -62.274147
v 85.067818 45.270512 -86.031815
v 90.934624 45.270508 -95.705612
v 60.534130 45.270508 -95.124428
v 50.528503 45.270512 -84.159073
v 28.731913 45.270508 -90.285858
v 5.682690 45.270508 -95.099274
v -11.940804 45.270508 -90.863174
v -29.006582 45.270508 -88.481819
v -49.922249 45.270512 -80.926163
v -72.608673 45.270512 -87.600136
v -86.855362 45.270508 -94.957977
v -85.701218 45.270515 -71.550339
v -67.298874 45.270515 -53.323898
v -80.455780 45.270519 -34.863785
v -85.905273 45.270523 5.151827
v -78.644753 45.270531 23.070673
v -80.976746 45.270535 53.465893
v -84.949944 45.270538 88.904167
v -61.203762 45.270538 85.579361
v -38.133453 45.270538 75.365288
v -10.268342 45.270538 74.312500
v 20.383526 45.270538 80.137527
v 41.245125 45.270538 84.321037
v 56.109676 45.270538 80.503571
v 71.564194 45.270538 77.477448
v 85.579193 45.270538 91.355721
v 83.324776 14.513199 78.422287
v 78.416191 14.513199 67.338776
v 73.792305 14.513195 51.050583
v 78.048355 14.513191 24.975679
v 70.820343 14.513187 4.364281
v 68.755379 14.513184 -13.369328
v 76.098114 14.513184 -31.120430
v 76.792160 14.513180 -51.683136
v 71.541473 14.513176 -71.066795
v 76.328156 14.513176 -78.959557
v 51.524670 14.513176 -78.485367
v 43.361172 14.513176 -69.538841
v 25.577532 14.513176 -74.537628
v 6.771883 14.513176 -78.464844
v -7.606964 14.513176 -75.008652
v -21.530773 14.513176 -73.065735
v -38.595676 14.513176 -66.901138
v -57.105320 14.513176 -72.346367
v -68.729057 14.513176 -78.349564
v -67.787407 14.513176 -59.251495
v -52.773102 14.513180 -44.380707
v -63.507698 14.513184 -29.319267
v -67.953888 14.513187 3.329100
v -62.030102 14.513191 17.948919
v -63.932751 14.513195 42.748096
v -67.174446 14.513199 71.661865
v -47.800156 14.513199 68.949188
v -28.977306 14.513199 60.615616
v -6.242417 14.513199 59.756660
v 18.766161 14.513199 64.509247
v 35.786945 14.513199 67.922531
v 47.914799 14.513199 64.807899
v 60.523994 14.513199 62.338909
v 71.958702 14.513199 73.662064
v 69.020966 -18.784363 61.836159
v 65.091270 -18.784363 52.962944
v 61.389488 -18.784363 39.922993
v 64.796783 -18.784370 19.048018
v 59.010197 -18.784370 2.547001
v 57.357037 -18.784370 -11.650122
v 63.235462 -18.784378 -25.861250
v 63.791103 -18.784378 -42.323280
v 59.587521 -18.784378 -57.841400
v 63.419624 -18.784378 -64.160164
v 43.562523 -18.784378 -63.780537
v 37.027012 -18.784378 -56.618160
v 22.789835 -18.784378 -60.620068
v 7.734462 -18.784378 -63.764107
v -3.776916 -18.784378 -60.997158
v -14.923999 -18.784378 -59.441704
v -28.585772 -18.784378 -54.506470
v -43.404171 -18.784378 -58.865795
v -52.709877 -18.784378 -63.671818
v -51.956013 -18.784378 -48.382336
v -39.935902 -18.784378 -36.477123
v -48.529770 -18.784378 -24.419279
v -52.089291 -18.784370 1.718259
v -47.346844 -18.784370 13.422556
v -48.870060 -18.784363 33.276211
v -51.465294 -18.784363 56.423916
v -35.954674 -18.784363 54.252205
v -20.885525 -18.784363 47.580540
v -2.684491 -18.784363 46.892876
v 17.336805 -18.784363 50.697689
v 30.963261 -18.784363 53.430286
v 40.672543 -18.784363 50.936783
v 50.767174 -18.784363 48.960167
v 59.921543 -18.784363 58.025230
v 42.526451 -63.181168 31.114164
v 40.409908 -63.181168 26.335037
v 38.416126 -63.181168 19.311689
v 40.251297 -63.181168 8.068388
v 37.134632 -63.181168 -0.819094
v 36.244240 -63.181168 -8.465693
v 39.410370 -63.181168 -16.119837
v 39.709641 -63.181168 -24.986322
v 37.445583 -63.181168 -33.344410
v 39.509560 -63.181168 -36.747711
v 28.814480 -63.181168 -36.543243
v 25.294443 -63.181168 -32.685570
v 17.626270 -63.181168 -34.841003
v 9.517415 -63.181168 -36.534393
v 3.317362 -63.181168 -35.044109
v -2.686479 -63.181168 -34.206337
v -10.044735 -63.181168 -31.548212
v -18.025957 -63.181168 -33.896152
v -23.038034 -63.181168 -36.484684
v -22.631996 -63.181168 -28.249741
v -16.157940 -63.181168 -21.837568
v -20.786617 -63.181168 -15.343187
v -22.703781 -63.181168 -1.265456
v -20.149488 -63.181168 5.038503
v -20.969898 -63.181168 15.731722
v -22.367693 -63.181168 28.199121
v -14.013642 -63.181168 27.029434
v -5.897369 -63.181168 23.436062
v 3.905746 -63.181168 23.065685
v 14.689258 -63.181168 25.114964
v 22.028496 -63.181168 26.586746
v 27.257935 -63.181168 25.243744
v 32.694923 -63.181168 24.179132
v 37.625484 -63.181168 29.061590
v 28.057602 -93.617569 14.336666
v 26.931236 -93.617569 11.793344
v 25.870199 -93.617569 8.055713
v 26.846828 -93.617569 2.072334
v 25.188225 -93.617569 -2.657341
v 24.714380 -93.617569 -6.726653
v 26.399311 -93.617569 -10.799978
v 26.558571 -93.617569 -15.518479
v 25.353704 -93.617569 -19.966427
v 26.452097 -93.617569 -21.777571
v 20.760468 -93.617569 -21.668758
v 18.887199 -93.617569 -19.615808
v 14.806406 -93.617569 -20.762875
v 10.491095 -93.617569 -21.664049
v 7.191596 -93.617569 -20.870958
v 3.996516 -93.617569 -20.425121
v 0.080652 -93.617569 -19.010538
v -4.166736 -93.617569 -20.260050
v -6.834027 -93.617569 -21.637594
v -6.617942 -93.617569 -17.255180
v -3.172627 -93.617569 -13.842798
v -5.635883 -93.617569 -10.386667
v -6.656147 -93.617569 -2.894883
v -5.296821 -93.617569 0.459912
v -5.733419 -93.617569 6.150550
v -6.477291 -93.617569 12.785359
v -2.031491 -93.617569 12.162885
v 2.287769 -93.617569 10.250589
v 7.504717 -93.617569 10.053485
v 13.243408 -93.617569 11.144055
v 17.149151 -93.617569 11.927297
v 19.932116 -93.617569 11.212588
v 22.825531 -93.617569 10.646031
v 25.449444 -93.617569 13.244342
v 14.705681 -127.185074 -1.145709
v 14.493056 -127.185074 -1.625814
v 14.292764 -127.185074 -2.331371
v 14.477122 -127.185074 -3.460860
v 14.164026 -127.185074 -4.353685
v 14.074578 -127.185074 -5.121854
v 14.392645 -127.185074 -5.890780
v 14.422709 -127.185074 -6.781497
v 14.195265 -127.185074 -7.621140
v 14.402609 -127.185074 -7.963032
v 13.328194 -127.185074 -7.942492
v 12.974575 -127.185074 -7.554954
v 12.204240 -127.185074 -7.771486
v 11.389633 -127.185074 -7.941602
v 10.766784 -127.185074 -7.791890
v 10.163645 -127.185074 -7.707729
v 9.424443 -127.185074 -7.440697
v 8.622660 -127.185074 -7.676568
v 8.119152 -127.185074 -7.936609
v 8.159943 -127.185074 -7.109336
v 8.810318 -127.185074 -6.465177
v 8.345326 -127.185074 -5.812759
v 8.152730 -127.185074 -4.398527
v 8.409332 -127.185074 -3.765239
v 8.326914 -127.185074 -2.691010
v 8.186494 -127.185074 -1.438551
v 9.025731 -127.185074 -1.556056
v 9.841084 -127.185074 -1.917042
v 10.825891 -127.185074 -1.954249
v 11.909190 -127.185074 -1.748381
v 12.646482 -127.185074 -1.600528
v 13.171824 -127.185074 -1.735444
v 13.718019 -127.185074 -1.842393
v 14.213337 -127.185074 -1.351908
v -31.495403 57.338974 81.107185
v -45.014530 57.588409 61.731564
v -35.187160 57.588402 37.817066
v -37.849907 57.588398 4.754281
v -50.402126 57.588394 -19.872953
v -51.105133 57.588390 -47.997856
v -40.611938 57.588387 -73.276497
v -24.127190 57.588387 -68.927330
v -34.646999 57.588390 -42.143654
v -36.954319 57.588394 -20.363476
v -27.199966 57.588398 4.453994
v -23.980160 57.588406 39.867085
v -34.113297 57.588409 65.600983
v -93.095375 56.126060 96.805275
v -88.786980 56.126053 58.377205
v 30.177372 56.126026 -97.502327
v 53.812862 56.126026 -90.858643
v -67.345833 56.126057 93.199966
v 5.183578 56.126026 -102.721825
v -41.813259 56.731300 82.472679
v -14.736751 56.709446 -98.420654
v 100.403015 56.126057 91.059639
v 106.926811 56.126060 105.790268
v -12.113180 56.126057 80.982574
v -31.903301 56.709446 -96.025253
v 94.257599 56.126053 69.411697
v 21.124668 56.126057 87.299026
v -55.112537 56.126030 -87.352982
v 100.496384 58.654617 32.568943
v 47.018147 58.415134 92.715210
v -79.712929 56.126026 -94.590012
v 92.697548 58.654613 10.329776
v 57.888763 58.415131 89.923462
v -95.161552 56.126026 -102.568611
v 87.563240 56.126038 -16.206106
v 76.623253 56.126057 84.414536
v -93.910042 56.126030 -77.186157
v 97.322159 56.126038 -39.798351
v 91.820641 56.126060 99.463661
v -73.955154 56.126034 -57.422024
v 98.244583 56.126030 -67.127373
v -88.222061 56.126038 -37.404503
v 91.266121 56.126026 -92.889374
v -94.131302 56.126045 5.987074
v 97.627892 56.126026 -103.379311
v -86.258247 56.126045 25.417662
v 64.662628 56.126026 -102.749100
v -24.775890 56.731300 81.828979
v -46.358662 66.551544 88.615311
v -45.719437 66.551537 61.583694
v -35.906696 66.551537 37.704807
v -38.544563 66.551529 4.950925
v -51.106087 66.551529 -19.694569
v -51.816872 66.551521 -48.130486
v -41.293636 66.551514 -73.481491
v -33.777107 57.643841 -95.582504
v -15.834009 66.551514 -105.105698
v -23.446209 66.551521 -68.723923
v -33.952820 66.551521 -41.973850
v -36.231800 66.551529 -20.461231
v -26.503836 66.551529 4.289100
v -23.259655 66.551537 39.970253
v -33.416409 66.551537 65.764122
v -35.323582 66.551544 88.198395
v -23.049110 56.126057 81.395744
v -42.329163 56.126057 82.124176
v -13.926742 56.126026 -98.128334
v -32.432293 56.126026 -95.546089
v 45.822273 66.551544 79.783806
v 45.116104 66.551537 59.370144
v 50.782570 66.551537 43.352318
v 59.691971 66.551537 28.926964
v 73.964767 66.551529 17.354963
v 87.909744 66.551529 14.729974
v 97.036560 66.551537 35.266003
v 77.418762 66.551537 31.488411
v 67.319138 66.551537 37.452442
v 56.839359 66.551537 47.028519
v 55.893009 66.551537 59.356720
v 55.425133 66.551544 80.463753
v 106.513077 66.551537 37.708458
v 99.914124 56.126049 34.756630
v 46.148346 66.551544 99.052254
v 43.746277 56.126057 91.835480
v 97.057091 66.251442 10.971875
v 90.307693 56.126045 7.362890
v 60.799770 66.708099 95.540466
v 59.864895 56.126057 87.695953
v 42.999210 66.551544 80.065552
v 42.268127 66.551537 58.931789
v 48.214600 66.551537 42.122444
v 57.535732 66.551537 27.030458
v 72.737701 66.551529 14.705107
v 87.101585 66.551529 12.001263
v 96.824440 66.551537 38.108280
v 77.935654 66.551537 34.471069
v 69.011864 66.551537 39.740746
v 59.576401 66.551537 48.362560
v 58.721722 66.551537 59.496540
v 58.267120 66.551544 80.004715
v 100.698120 59.512680 33.106197
v 91.505196 58.699810 9.192286
v 46.499672 58.952618 92.239151
v 58.383926 59.156464 89.346100
v 54.143990 58.999905 79.869934
v 44.541130 58.999905 79.189987
v 54.611862 58.999901 58.762897
v 43.834957 58.999901 58.776321
v 55.558216 58.999897 46.434692
v 49.501423 58.999897 42.758495
v 66.037994 58.999897 36.858620
v 58.410828 58.999897 28.333145
v 76.137619 58.999897 30.894590
v 72.683624 58.999893 16.761145
v 95.755417 58.999897 34.672176
v 86.628601 58.999893 14.136153
v 94.944481 51.102982 30.789354
v 44.602303 50.863495 86.520844
v 87.145645 51.102978 8.550188
v 55.472919 50.863495 83.729095
vn -0.0000 1.0000 -0.0000
vn 0.1812 -0.4629 -0.8677
vn -0.8277 -0.5535 -0.0928
vn 0.2242 -0.5600 -0.7976
vn 0.1180 -0.5250 0.8429
vn 0.1692 -0.5612 -0.8102
vn 0.3742 -0.3816 0.8452
vn -0.1920 -0.5699 -0.7990
vn 0.8748 -0.2908 -0.3874
vn 0.0323 -0.5193 0.8540
vn -0.1139 -0.5669 -0.8159
vn -0.1138 -0.5669 -0.8159
vn 0.8854 -0.3909 -0.2514
vn -0.1576 -0.5363 0.8292
vn -0.1657 -0.5352 0.8283
vn -0.1618 -0.5357 0.8288
vn -0.2758 -0.5839 -0.7635
vn 0.8198 -0.5568 0.1338
vn -0.1661 -0.5351 0.8283
vn 0.2590 -0.3974 -0.8804
vn 0.8428 -0.4498 -0.2956
vn 0.8402 -0.4503 -0.3021
vn 0.2011 -0.5884 0.7831
vn 0.4428 -0.2623 -0.8574
vn 0.8702 -0.4821 -0.1013
vn 0.1562 -0.5825 0.7977
vn -0.8068 -0.5895 0.0398
vn 0.8357 -0.4266 0.3457
vn -0.6981 -0.1252 0.7050
vn -0.6945 -0.1611 0.7012
vn 0.8549 -0.5180 0.0289
vn -0.3500 -0.4230 0.8358
vn -0.6614 -0.5835 -0.4714
vn 0.7847 -0.5823 -0.2126
vn -0.7963 -0.5951 -0.1084
vn 0.8442 -0.1586 0.5120
vn -0.7481 -0.5902 0.3031
vn -0.0157 -0.5707 -0.8210
vn -0.8234 -0.5639 -0.0632
vn -0.7254 -0.1890 -0.6619
vn 0.2490 -0.3912 -0.8860
vn 0.3858 -0.3030 0.8714
vn -0.2061 -0.4711 -0.8576
vn 0.8903 -0.2279 -0.3943
vn 0.0342 -0.4239 0.9051
vn -0.1221 -0.4683 -0.8751
vn 0.9143 -0.3109 -0.2596
vn -0.1677 -0.4396 0.8824
vn -0.1763 -0.4385 0.8813
vn -0.1681 -0.4395 0.8824
vn -0.2972 -0.4846 -0.8227
vn 0.8770 -0.4587 0.1431
vn -0.1767 -0.4385 0.8812
vn 0.2677 -0.3164 -0.9101
vn 0.8798 -0.3616 -0.3085
vn 0.2170 -0.4890 0.8449
vn 0.4491 -0.2049 -0.8696
vn 0.9145 -0.3902 -0.1065
vn 0.1682 -0.4833 0.8592
vn -0.8707 -0.4899 0.0429
vn 0.8685 -0.3415 0.3593
vn -0.7003 -0.0967 0.7072
vn -0.6982 -0.1248 0.7049
vn 0.9058 -0.4227 0.0306
vn -0.3635 -0.3383 0.8680
vn -0.7125 -0.4842 -0.5078
vn 0.8451 -0.4831 -0.2289
vn -0.8607 -0.4954 -0.1172
vn 0.8486 -0.1228 0.5146
vn -0.8075 -0.4907 0.3272
vn -0.0169 -0.4719 -0.8815
vn -0.8825 -0.4654 -0.0677
vn -0.7307 -0.1467 -0.6668
vn -0.8846 -0.4556 -0.0992
vn 0.2400 -0.4618 -0.8539
vn 0.1252 -0.4291 0.8945
vn -0.7285 -0.1658 -0.6647
vn 0.1293 -0.3616 0.9233
vn 0.1881 -0.3921 -0.9005
vn 0.3918 -0.2513 0.8851
vn -0.2142 -0.3997 -0.8913
vn 0.8981 -0.1877 -0.3977
vn 0.0353 -0.3569 0.9335
vn -0.1268 -0.3971 -0.9090
vn 0.9294 -0.2580 -0.2638
vn -0.1734 -0.3710 0.9123
vn -0.1823 -0.3700 0.9109
vn -0.1737 -0.3709 0.9123
vn -0.3096 -0.4121 -0.8570
vn 0.9095 -0.3884 0.1484
vn -0.1827 -0.3700 0.9109
vn 0.2723 -0.2627 -0.9257
vn 0.8996 -0.3019 -0.3155
vn 0.2262 -0.4161 0.8807
vn 0.4523 -0.1685 -0.8758
vn 0.9387 -0.3270 -0.1093
vn 0.1752 -0.4108 0.8947
vn -0.9078 -0.4170 0.0448
vn 0.8859 -0.2843 0.3665
vn -0.7014 -0.0791 0.7083
vn -0.7000 -0.1021 0.7068
vn 0.9340 -0.3558 0.0315
vn -0.3707 -0.2816 0.8850
vn -0.7421 -0.4117 -0.5289
vn 0.8801 -0.4106 -0.2384
vn -0.8983 -0.4221 -0.1223
vn 0.8507 -0.1005 0.5159
vn -0.8421 -0.4177 0.3412
vn -0.0175 -0.4004 -0.9162
vn -0.9162 -0.3945 -0.0703
vn -0.7333 -0.1202 -0.6692
vn -0.9169 -0.3855 -0.1028
vn 0.2449 -0.4256 -0.8711
vn -0.8595 -0.5020 -0.0964
vn 0.2330 -0.5084 -0.8290
vn 0.1221 -0.4743 0.8719
vn 0.1759 -0.5095 -0.8423
vn 0.3808 -0.3392 0.8602
vn -0.1999 -0.5181 -0.8316
vn 0.8837 -0.2566 -0.3914
vn 0.0333 -0.4688 0.8827
vn -0.1185 -0.5152 -0.8489
vn 0.9019 -0.3478 -0.2560
vn -0.1632 -0.4852 0.8590
vn -0.1717 -0.4842 0.8580
vn -0.1636 -0.4852 0.8590
vn -0.2877 -0.5320 -0.7964
vn 0.8517 -0.5053 0.1390
vn -0.1720 -0.4841 0.8579
vn 0.2640 -0.3538 -0.8973
vn 0.8638 -0.4026 -0.3029
vn 0.2099 -0.5365 0.8174
vn 0.4465 -0.2310 -0.8645
vn 0.8952 -0.4332 -0.1042
vn 0.1629 -0.5306 0.8318
vn -0.8423 -0.5375 0.0415
vn 0.8544 -0.3810 0.3534
vn -0.6994 -0.1095 0.7063
vn -0.6967 -0.1412 0.7034
vn 0.8835 -0.4676 0.0298
vn -0.3577 -0.3776 0.8541
vn -0.6898 -0.5315 -0.4916
vn 0.8183 -0.5304 -0.2217
vn -0.8320 -0.5431 -0.1133
vn 0.8468 -0.1390 0.5135
vn -0.7811 -0.5383 0.3165
vn -0.0163 -0.5189 -0.8547
vn -0.8564 -0.5122 -0.0657
vn -0.7341 -0.1114 -0.6698
vn 0.1274 -0.3944 0.9101
vn 0.1849 -0.4266 -0.8853
vn 0.3891 -0.2761 0.8788
vn -0.2105 -0.4346 -0.8757
vn 0.8946 -0.2069 -0.3962
vn 0.0348 -0.3894 0.9204
vn -0.1246 -0.4318 -0.8933
vn 0.9225 -0.2834 -0.2619
vn -0.1708 -0.4043 0.8985
vn -0.1796 -0.4033 0.8973
vn -0.1711 -0.4043 0.8985
vn -0.3038 -0.4475 -0.8411
vn 0.8944 -0.4227 0.1460
vn -0.1799 -0.4033 0.8972
vn 0.2702 -0.2885 -0.9186
vn 0.8906 -0.3307 -0.3123
vn 0.2219 -0.4518 0.8641
vn 0.4509 -0.1858 -0.8730
vn 0.9276 -0.3576 -0.1080
vn 0.1720 -0.4463 0.8782
vn -0.8906 -0.4527 0.0439
vn 0.8780 -0.3118 0.3632
vn -0.7009 -0.0874 0.7078
vn -0.6992 -0.1129 0.7060
vn 0.9210 -0.3883 0.0311
vn -0.3674 -0.3089 0.8773
vn -0.7284 -0.4471 -0.5191
vn 0.8639 -0.4461 -0.2340
vn -0.8808 -0.4580 -0.1200
vn 0.8498 -0.1111 0.5153
vn -0.8260 -0.4535 0.3347
vn -0.0172 -0.4353 -0.9001
vn -0.9006 -0.4291 -0.0691
vn -0.7322 -0.1328 -0.6681
vn -0.9020 -0.4197 -0.1011
vn -0.0000 -1.0000 -0.0000
vn -0.9268 -0.3608 -0.1039
vn 0.2518 -0.3662 -0.8958
vn 0.1305 -0.3379 0.9321
vn 0.1901 -0.3671 -0.9105
vn 0.3936 -0.2337 0.8891
vn -0.2167 -0.3744 -0.9016
vn 0.9004 -0.1742 -0.3987
vn 0.0356 -0.3335 0.9421
vn -0.1283 -0.3719 -0.9194
vn 0.9339 -0.2401 -0.2651
vn -0.1751 -0.3469 0.9214
vn -0.1841 -0.3460 0.9200
vn -0.1754 -0.3469 0.9214
vn -0.3134 -0.3862 -0.8675
vn 0.9194 -0.3635 0.1501
vn -0.1845 -0.3460 0.9199
vn 0.2737 -0.2445 -0.9302
vn 0.9055 -0.2813 -0.3176
vn 0.2290 -0.3901 0.8918
vn 0.4532 -0.1563 -0.8776
vn 0.9459 -0.3051 -0.1101
vn 0.1773 -0.3851 0.9057
vn -0.9193 -0.3910 0.0453
vn 0.8911 -0.2648 0.3686
vn -0.7017 -0.0733 0.7087
vn -0.7005 -0.0946 0.7073
vn 0.9426 -0.3325 0.0318
vn -0.3728 -0.2623 0.8901
vn -0.7513 -0.3859 -0.5354
vn 0.8909 -0.3849 -0.2413
vn -0.9099 -0.3959 -0.1239
vn 0.8513 -0.0931 0.5163
vn -0.8528 -0.3917 0.3455
vn -0.0177 -0.3751 -0.9268
vn -0.9266 -0.3694 -0.0711
vn 0.0022 1.0000 0.0013
vn 0.0010 1.0000 0.0006
vn 0.0011 1.0000 0.0007
vn 0.0170 0.9999 0.0010
vn 0.7772 0.2314 -0.5852
vn 0.9268 -0.1830 0.3279
vn -0.1580 -0.5362 0.8292
vn -0.1428 0.0859 -0.9860
vn 0.0416 0.7576 0.6514
vn 0.9391 0.3374 -0.0655
vn 0.9221 0.0788 0.3789
vn 0.9937 0.0788 -0.0800
vn 0.8882 0.0788 -0.4527
vn 0.9966 0.0788 -0.0249
vn 0.9207 0.0788 0.3822
vn 0.9461 0.2284 0.2297
vn -0.9673 -0.0782 -0.2411
vn -0.9279 0.0788 -0.3644
vn -0.9913 0.0788 -0.1050
vn -0.9278 0.0788 0.3647
vn -0.9928 0.0788 0.0903
vn -0.9276 0.0788 -0.3652
vn -0.9842 -0.1764 0.0173
vn -0.1162 -0.6253 0.7717
vn 0.5560 -0.2403 0.7957
vn -0.4372 -0.5382 -0.7206
vn 0.6360 0.5759 0.5136
vn 0.0323 -0.5192 0.8540
vn -0.5026 0.1522 -0.8510
vn -0.5188 0.5380 -0.6644
vn 0.9858 -0.1646 -0.0341
vn 0.1889 0.0451 -0.9810
vn 0.9734 -0.1683 -0.1556
vn -0.1484 0.2187 -0.9644
vn -0.8035 0.5243 0.2818
vn 0.8412 -0.4844 -0.2404
vn 0.1856 -0.5914 0.7848
vn 0.8409 -0.4502 -0.3003
vn 0.8390 -0.4506 -0.3050
vn 0.2154 -0.5937 0.7753
vn 0.0042 1.0000 -0.0001
vn 0.0061 1.0000 -0.0001
vn 0.0005 1.0000 -0.0000
vn 0.0084 1.0000 -0.0001
vn 0.0347 0.9984 0.0444
vn -0.0233 0.9956 0.0903
vn 0.0248 0.9996 -0.0141
vn 0.1996 -0.5965 0.7774
vn 0.8310 -0.4700 -0.2977
vn -0.0265 0.9996 -0.0073
vn -0.0092 1.0000 -0.0021
vn -0.0097 1.0000 -0.0022
vn -0.0006 1.0000 -0.0001
vn -0.6647 0.1700 -0.7275
vn 0.8365 -0.1825 0.5166
vn -0.6491 0.3139 0.6929
vn -0.9821 0.1725 -0.0754
vn 0.6211 -0.1656 0.7660
vn -0.8785 0.4379 -0.1912
vn -0.9854 0.1689 -0.0218
vn 0.1839 -0.1080 0.9770
vn -0.1873 0.6581 -0.7293
vn -0.9295 0.0643 0.3632
vn 0.4841 -0.3454 0.8040
vt 0.479432 0.720847
vt 0.447355 0.743111
vt 0.470373 0.770882
vt 0.209334 0.300732
vt 0.206203 0.247178
vt 0.176124 0.249136
vt 0.172468 0.303132
vt 0.682103 0.638170
vt 0.683372 0.620098
vt 0.638442 0.620713
vt 0.633382 0.638837
vt 0.248769 0.317148
vt 0.244690 0.297693
vt 0.210430 0.320444
vt 0.700934 0.676301
vt 0.690427 0.690678
vt 0.690427 0.728304
vt 0.700934 0.717101
vt 0.170453 0.323046
vt 0.345885 0.469272
vt 0.365584 0.477753
vt 0.388156 0.461862
vt 0.370362 0.452040
vt 0.146756 0.301098
vt 0.142573 0.320840
vt 0.635908 0.012990
vt 0.617057 0.023263
vt 0.615409 0.040417
vt 0.634122 0.031592
vt 0.072853 0.691772
vt 0.062503 0.698752
vt 0.062503 0.742509
vt 0.072853 0.722048
vt 0.121320 0.299969
vt 0.114990 0.319616
vt 0.613954 0.067210
vt 0.632544 0.060644
vt 0.345016 0.692586
vt 0.346601 0.711671
vt 0.376345 0.699085
vt 0.377270 0.678938
vt 0.091596 0.296319
vt 0.082759 0.315658
vt 0.615974 0.117227
vt 0.634735 0.114881
vt 0.396845 0.690368
vt 0.399499 0.669485
vt 0.054704 0.299628
vt 0.042755 0.319246
vt 0.613619 0.150289
vt 0.632181 0.150732
vt 0.672291 0.663723
vt 0.659925 0.662492
vt 0.659221 0.686565
vt 0.671529 0.689826
vt 0.030546 0.303253
vt 0.016558 0.323177
vt 0.613143 0.181274
vt 0.631665 0.184331
vt 0.659933 0.711266
vt 0.672300 0.716611
vt 0.288854 0.709575
vt 0.285516 0.685565
vt 0.258425 0.667343
vt 0.259477 0.689816
vt 0.616177 0.218041
vt 0.634955 0.224201
vt 0.938313 0.392112
vt 0.938166 0.413664
vt 0.962091 0.395717
vt 0.964256 0.372651
vt 0.227242 0.643466
vt 0.225663 0.663924
vt 0.616777 0.255857
vt 0.635605 0.265207
vt 0.977685 0.384915
vt 0.981165 0.360937
vt 0.606067 0.688464
vt 0.606067 0.676198
vt 0.570576 0.678592
vt 0.567581 0.691060
vt 0.615140 0.287895
vt 0.633830 0.299949
vt 0.811542 0.637937
vt 0.802741 0.619883
vt 0.752765 0.620713
vt 0.757350 0.638837
vt 0.617057 0.305174
vt 0.635908 0.318685
vt 0.722755 0.619721
vt 0.724808 0.637761
vt 0.312070 0.323177
vt 0.303066 0.303253
vt 0.256609 0.303032
vt 0.261694 0.322937
vt 0.235049 0.244698
vt 0.225889 0.188745
vt 0.202796 0.190730
vt 0.413054 0.506207
vt 0.431471 0.493241
vt 0.155146 0.247477
vt 0.565038 0.046470
vt 0.563693 0.060466
vt 0.326966 0.718724
vt 0.339238 0.768833
vt 0.355258 0.763078
vt 0.134393 0.246556
vt 0.562506 0.082326
vt 0.379526 0.752810
vt 0.110142 0.243578
vt 0.564155 0.123134
vt 0.396251 0.745697
vt 0.080042 0.246277
vt 0.562233 0.150109
vt 0.745267 0.306644
vt 0.743460 0.251837
vt 0.732218 0.250656
vt 0.731488 0.305197
vt 0.060331 0.249235
vt 0.561845 0.175390
vt 0.721566 0.249906
vt 0.718431 0.304278
vt 0.284770 0.624251
vt 0.262667 0.609384
vt 0.564320 0.205388
vt 0.944664 0.469400
vt 0.964184 0.454758
vt 0.237224 0.589903
vt 0.564810 0.236242
vt 0.976907 0.445944
vt 0.606067 0.649430
vt 0.577110 0.651383
vt 0.563474 0.262381
vt 0.784024 0.569439
vt 0.743249 0.570116
vt 0.565038 0.276479
vt 0.718764 0.569307
vt 0.282678 0.249235
vt 0.244774 0.249054
vt 0.686633 0.569614
vt 0.649974 0.570116
vt 0.352332 0.490352
vt 0.402242 0.516486
vt 0.233675 0.192232
vt 0.214924 0.112748
vt 0.210731 0.110870
vt 0.450229 0.548187
vt 0.458885 0.539957
vt 0.178715 0.192298
vt 0.473629 0.529577
vt 0.161921 0.190969
vt 0.509652 0.067663
vt 0.508575 0.078868
vt 0.354582 0.821561
vt 0.367407 0.816954
vt 0.145306 0.190232
vt 0.507625 0.096368
vt 0.386835 0.808733
vt 0.125891 0.187848
vt 0.508945 0.129038
vt 0.400225 0.803039
vt 0.101794 0.190009
vt 0.507407 0.150634
vt 0.745267 0.194596
vt 0.736266 0.193651
vt 0.086014 0.192377
vt 0.507095 0.170873
vt 0.727738 0.193051
vt 0.289768 0.562349
vt 0.272072 0.550447
vt 0.509077 0.194889
vt 0.956306 0.526190
vt 0.971933 0.514468
vt 0.251704 0.534851
vt 0.509469 0.219589
vt 0.982118 0.507412
vt 0.120466 0.691772
vt 0.123188 0.748413
vt 0.134115 0.750338
vt 0.134115 0.694176
vt 0.508400 0.240516
vt 0.767907 0.515300
vt 0.735264 0.515843
vt 0.509652 0.251802
vt 0.715662 0.515195
vt 0.264019 0.192377
vt 0.689938 0.515441
vt 0.660590 0.515843
vt 0.201805 0.059110
vt 0.195185 0.059679
vt 0.198292 0.111939
vt 0.694862 0.442103
vt 0.679055 0.442319
vt 0.528155 0.582592
vt 0.532818 0.578160
vt 0.185323 0.112783
vt 0.540759 0.572569
vt 0.176277 0.112068
vt 0.433661 0.104987
vt 0.433081 0.111022
vt 0.026821 0.744973
vt 0.026821 0.700379
vt 0.014058 0.691772
vt 0.003125 0.728993
vt 0.167329 0.111670
vt 0.432569 0.120448
vt 0.377201 0.892888
vt 0.387665 0.888460
vt 0.156872 0.110386
vt 0.433280 0.138044
vt 0.394877 0.885393
vt 0.143893 0.111550
vt 0.432451 0.149676
vt 0.738998 0.113447
vt 0.734150 0.112938
vt 0.135394 0.112826
vt 0.432284 0.160576
vt 0.140365 0.698600
vt 0.147113 0.743578
vt 0.154991 0.739901
vt 0.154991 0.691772
vt 0.283041 0.469490
vt 0.273511 0.463079
vt 0.433351 0.173511
vt 0.961201 0.610098
vt 0.969618 0.603785
vt 0.262540 0.454679
vt 0.433562 0.186815
vt 0.975104 0.599984
vt 0.056253 0.735589
vt 0.056253 0.691772
vt 0.043767 0.692614
vt 0.033071 0.737153
vt 0.432986 0.198087
vt 0.736856 0.442027
vt 0.719275 0.442319
vt 0.433661 0.204165
vt 0.708717 0.441970
vt 0.231268 0.112826
vt 0.204036 0.060109
vt 0.193415 0.003362
vt 0.192994 0.003173
vt 0.574638 0.610092
vt 0.577119 0.607733
vt 0.188283 0.060128
vt 0.581345 0.604758
vt 0.183469 0.059747
vt 0.382631 0.126062
vt 0.382323 0.129273
vt 0.370293 0.895369
vt 0.383427 0.944224
vt 0.387103 0.942904
vt 0.178707 0.059536
vt 0.382050 0.134290
vt 0.392672 0.940547
vt 0.173142 0.058853
vt 0.382429 0.143654
vt 0.396510 0.938915
vt 0.166235 0.059472
vt 0.381988 0.149844
vt 0.739019 0.060218
vt 0.736439 0.059947
vt 0.161712 0.060151
vt 0.381898 0.155645
vt 0.733995 0.059775
vt 0.729557 0.112614
vt 0.285095 0.410968
vt 0.280023 0.407557
vt 0.382467 0.162528
vt 0.969846 0.663546
vt 0.974326 0.660186
vt 0.274185 0.403086
vt 0.382579 0.169608
vt 0.977245 0.658164
vt 0.757389 0.112431
vt 0.757389 0.059493
vt 0.754264 0.058904
vt 0.751516 0.111325
vt 0.382272 0.175607
vt 0.720329 0.392336
vt 0.710972 0.392492
vt 0.382631 0.178842
vt 0.705354 0.392306
vt 0.212734 0.060151
vt 0.697980 0.392376
vt 0.689569 0.392492
vt 0.681738 0.320609
vt 0.683654 0.320695
vt 0.683094 0.320092
vt 0.681407 0.320076
vt 0.701238 0.337923
vt 0.699650 0.337945
vt 0.191745 0.003281
vt 0.621007 0.643181
vt 0.621476 0.642736
vt 0.190442 0.003365
vt 0.622273 0.642174
vt 0.189533 0.003294
vt 0.327104 0.146122
vt 0.327046 0.146728
vt 0.399578 0.996875
vt 0.400272 0.996626
vt 0.188634 0.003254
vt 0.326995 0.147675
vt 0.401323 0.996181
vt 0.187584 0.003125
vt 0.327066 0.149442
vt 0.402048 0.995873
vt 0.186280 0.003242
vt 0.326983 0.150611
vt 0.742089 0.003208
vt 0.741602 0.003157
vt 0.185426 0.003370
vt 0.326966 0.151706
vt 0.741140 0.003125
vt 0.292060 0.350049
vt 0.291102 0.349405
vt 0.327073 0.153005
vt 0.983111 0.719619
vt 0.983957 0.718984
vt 0.290000 0.348561
vt 0.327095 0.154342
vt 0.984508 0.718603
vt 0.753885 0.003236
vt 0.753295 0.003125
vt 0.327037 0.155474
vt 0.705457 0.337916
vt 0.703691 0.337945
vt 0.327104 0.156085
vt 0.702630 0.337910
vt 0.195057 0.003370
vt 0.712182 0.003125
vt 0.683510 0.008975
vt 0.674630 0.044491
vt 0.700820 0.049953
vt 0.923743 0.402645
vt 0.931623 0.337910
vt 0.888142 0.343578
vt 0.845777 0.361855
vt 0.660263 0.084965
vt 0.686534 0.092788
vt 0.663673 0.128981
vt 0.684707 0.127108
vt 0.685365 0.166542
vt 0.702030 0.165197
vt 0.692253 0.218135
vt 0.709983 0.220427
vt 0.678816 0.256417
vt 0.696217 0.261585
vt 0.686551 0.287479
vt 0.701592 0.285670
vt 0.072853 0.739221
vt 0.082792 0.736063
vt 0.082792 0.702398
vt 0.266577 0.342054
vt 0.252686 0.335832
vt 0.726780 0.655087
vt 0.680884 0.655526
vt 0.320717 0.342312
vt 0.761753 0.656243
vt 0.651779 0.311524
vt 0.654013 0.331660
vt 0.819995 0.655275
vt 0.653688 0.274187
vt 0.606067 0.700244
vt 0.564706 0.703034
vt 0.966335 0.350499
vt 0.984508 0.337910
vt 0.652988 0.230117
vt 0.260487 0.711398
vt 0.224147 0.683572
vt 0.938454 0.371414
vt 0.649452 0.187268
vt 0.292060 0.732634
vt 0.683348 0.692957
vt 0.684178 0.721744
vt 0.650008 0.151159
vt 0.031278 0.338087
vt 0.003125 0.342312
vt 0.612317 0.686320
vt 0.613610 0.696685
vt 0.613610 0.685888
vt 0.612317 0.675523
vt 0.311090 0.657343
vt 0.299035 0.657223
vt 0.298309 0.683874
vt 0.310364 0.683995
vt 0.074272 0.334231
vt 0.378158 0.659590
vt 0.402048 0.649430
vt 0.650397 0.054339
vt 0.652752 0.112629
vt 0.108912 0.338485
vt 0.343494 0.674257
vt 0.652093 0.023116
vt 0.140494 0.323099
vt 0.141300 0.321855
vt 0.115713 0.320719
vt 0.113075 0.321900
vt 0.685537 0.288659
vt 0.712182 0.286251
vt 0.654013 0.003125
vt 0.168519 0.342171
vt 0.138555 0.339800
vt 0.326966 0.461127
vt 0.353272 0.442607
vt 0.211483 0.339374
vt 0.711024 0.662493
vt 0.711024 0.706342
vt 0.628523 0.656243
vt 0.396773 0.440549
vt 0.391038 0.428182
vt 0.370316 0.449097
vt 0.433553 0.423551
vt 0.427763 0.411209
vt 0.478493 0.407482
vt 0.472284 0.395291
vt 0.508124 0.400347
vt 0.501937 0.388150
vt 0.546921 0.385964
vt 0.541162 0.373608
vt 0.585837 0.367948
vt 0.580190 0.355541
vt 0.619260 0.353082
vt 0.622273 0.337910
vt 0.313633 0.553566
vt 0.299733 0.552019
vt 0.300508 0.595374
vt 0.314682 0.586558
vt 0.312340 0.525510
vt 0.298441 0.523998
vt 0.312207 0.497788
vt 0.298309 0.496617
vt 0.313875 0.456474
vt 0.299973 0.455415
vt 0.314682 0.405925
vt 0.300786 0.404483
vt 0.313436 0.378989
vt 0.299537 0.377484
vt 0.314357 0.355927
vt 0.299469 0.348561
vt 0.073430 0.719315
vt 0.071900 0.708821
vt 0.369681 0.451135
vt 0.621149 0.353308
vt 0.620661 0.354622
vt 0.073430 0.692560
vt 0.717273 0.693804
vt 0.727903 0.689810
vt 0.729458 0.675965
vt 0.718828 0.679959
vt 0.187665 0.429283
vt 0.199250 0.387353
vt 0.198518 0.352030
vt 0.165197 0.356838
vt 0.619860 0.685241
vt 0.620523 0.694352
vt 0.620523 0.684635
vt 0.619860 0.675523
vt 0.314021 0.627552
vt 0.301966 0.627432
vt 0.722193 0.724751
vt 0.732822 0.720757
vt 0.317245 0.601623
vt 0.304148 0.609181
vt 0.722634 0.738844
vt 0.732005 0.728017
vt 0.101971 0.694553
vt 0.089042 0.691772
vt 0.101288 0.725952
vt 0.114217 0.728733
vt 0.653500 0.116628
vt 0.638834 0.118135
vt 0.684178 0.669353
vt 0.684168 0.664904
vt 0.674769 0.668426
vt 0.636761 0.147240
vt 0.649773 0.147613
vt 0.674255 0.686031
vt 0.683859 0.688544
vt 0.073283 0.378575
vt 0.077642 0.377669
vt 0.069589 0.348561
vt 0.065373 0.349984
vt 0.077759 0.410313
vt 0.082276 0.410527
vt 0.071565 0.436245
vt 0.075776 0.437740
vt 0.060047 0.460229
vt 0.063725 0.462832
vt 0.039687 0.480646
vt 0.042040 0.484578
vt 0.018361 0.487047
vt 0.020073 0.491172
vt 0.004707 0.494423
vt 0.006510 0.498500
vt 0.480233 0.658348
vt 0.479465 0.662754
vt 0.494657 0.663620
vt 0.494680 0.659170
vt 0.450179 0.649430
vt 0.450527 0.654168
vt 0.433489 0.657190
vt 0.435780 0.661024
vt 0.415650 0.670532
vt 0.419719 0.673036
vt 0.412275 0.689639
vt 0.416671 0.690292
vt 0.408297 0.722528
vt 0.412806 0.722249
vt 0.414370 0.746899
vt 0.418687 0.745847
vt 0.612558 0.668622
vt 0.621990 0.669274
vt 0.621990 0.651662
vt 0.612316 0.649430
vt 0.660263 0.326632
vt 0.674784 0.324087
vt 0.674784 0.294908
vt 0.661778 0.295461
vt 0.558456 0.670742
vt 0.524370 0.649430
vt 0.522919 0.660230
vt 0.553737 0.677370
vt 0.531517 0.781509
vt 0.546284 0.796024
vt 0.558456 0.781184
vt 0.544200 0.773302
vt 0.511373 0.756578
vt 0.524874 0.746394
vt 0.503367 0.731147
vt 0.514430 0.730043
vt 0.500929 0.704653
vt 0.518536 0.708148
vt 0.507909 0.676677
vt 0.525574 0.691141
vt 0.732822 0.662492
vt 0.722193 0.666487
vt 0.298619 0.709881
vt 0.310673 0.710001
vt 0.114217 0.694942
vt 0.101288 0.692160
vt 0.651847 0.664600
vt 0.640180 0.662492
vt 0.640648 0.678459
vt 0.652315 0.680567
vt 0.300670 0.734497
vt 0.312725 0.734617
vt 0.652972 0.733501
vt 0.641288 0.722905
vt 0.628523 0.712673
vt 0.640207 0.723269
vt 0.641305 0.706706
vt 0.652972 0.708813
vt 0.303845 0.745720
vt 0.315900 0.745840
vt 0.681033 0.313774
vt 0.691366 0.312520
vt 0.691366 0.294908
vt 0.681033 0.296163
vt 0.303949 0.755580
vt 0.317245 0.756198
vt 0.918951 0.458187
vt 0.844372 0.404262
vt 0.828619 0.441585
vt 0.832270 0.493019
vt 0.931917 0.491080
vt 0.851614 0.531878
vt 0.852306 0.576509
vt 0.921257 0.564160
vt 0.896877 0.597689
vt 0.905992 0.660460
vt 0.931917 0.674162
vt 0.930213 0.631338
vt 0.835416 0.616131
vt 0.826244 0.661316
vt 0.864623 0.647862
vt 0.108333 0.352150
vt 0.198626 0.484426
vt 0.217898 0.521440
vt 0.217898 0.555386
vt 0.205924 0.598866
vt 0.200060 0.656897
vt 0.015300 0.537539
vt 0.168827 0.667996
vt 0.003125 0.578839
vt 0.125983 0.663683
vt 0.006433 0.624835
vt 0.085164 0.656740
vt 0.022713 0.666800
vt 0.013908 0.685523
vt 0.069081 0.678609
vt 0.486167 0.758196
vt 0.494680 0.783998
vt 0.681033 0.330778
vt 0.681803 0.330447
vt 0.682573 0.329670
vt 0.681360 0.330021
vt 0.683431 0.329830
vt 0.681664 0.328911
vt 0.684258 0.330033
vt 0.685412 0.329790
vt 0.681358 0.327142
vt 0.687109 0.329451
vt 0.681836 0.325736
vt 0.688655 0.329495
vt 0.681964 0.324529
vt 0.689940 0.330049
vt 0.681454 0.323327
vt 0.691258 0.330221
vt 0.681393 0.321930
vt 0.691019 0.328258
vt 0.690205 0.322343
vt 0.689227 0.320821
vt 0.688063 0.320413
vt 0.687115 0.320290
vt 0.690874 0.326574
vt 0.691267 0.325576
vt 0.684860 0.320344
vt 0.690944 0.323360
vt 0.686135 0.320065
vt 0.691216 0.321323
vt 0.691267 0.320024
vt 0.690481 0.320439
s 1
usemtl Material.001
f 3/1/1 33/2/1 34/3/1
f 47/4/2 81/5/2 82/6/2 48/7/2
f 253/8/3 59/9/3 60/10/3 252/11/3
f 255/12/4 46/13/4 47/4/4 254/14/4
f 252/15/5 60/16/5 61/17/5 256/18/5
f 254/14/6 47/4/6 48/7/6 257/19/6
f 256/20/7 61/21/7 62/22/7 304/23/7
f 257/19/8 48/7/8 49/24/8 305/25/8
f 261/26/9 35/27/9 36/28/9 260/29/9
f 304/30/10 62/31/10 63/32/10 303/33/10
f 305/25/11 49/24/12 50/34/12 306/35/11
f 260/29/13 36/28/13 37/36/13 264/37/13
f 262/38/14 63/39/14 64/40/15 265/41/16
f 306/35/17 50/34/17 51/42/17 266/43/17
f 264/37/18 37/36/18 38/44/18 320/45/18
f 265/41/16 64/40/15 65/46/19 322/47/19
f 266/43/20 51/42/20 52/48/20 269/49/20
f 320/45/21 38/44/21 39/50/21 324/51/22
f 322/52/23 65/53/23 66/54/23 326/55/23
f 269/49/24 52/48/24 53/56/24 272/57/24
f 324/51/25 39/50/25 40/58/25 273/59/25
f 326/55/26 66/54/26 67/60/26 274/61/26
f 272/62/27 53/63/27 54/64/27 275/65/27
f 273/59/28 40/58/28 41/66/28 276/67/28
f 274/68/29 67/69/29 68/70/29 277/71/29
f 275/65/30 54/64/30 55/72/30 278/73/30
f 276/67/31 41/66/31 42/74/31 279/75/31
f 277/71/32 68/70/32 35/76/32 261/77/32
f 278/78/33 55/79/33 56/80/33 280/81/33
f 279/75/34 42/74/34 43/82/34 281/83/34
f 280/84/35 56/85/35 57/86/35 282/87/35
f 281/83/36 43/82/36 44/88/36 283/89/36
f 282/87/37 57/86/37 58/90/37 284/91/37
f 283/92/38 44/93/38 45/94/38 285/95/38
f 284/91/39 58/90/39 59/9/39 253/8/39
f 285/95/40 45/94/40 46/13/40 255/12/40
f 80/96/41 114/97/41 115/98/41 81/5/41
f 61/21/42 95/99/42 96/100/42 62/22/42
f 48/7/43 82/6/43 83/101/43 49/24/43
f 35/27/44 69/102/44 70/103/44 36/28/44
f 62/104/45 96/105/45 97/106/45 63/39/45
f 49/24/46 83/101/46 84/107/46 50/34/46
f 36/28/47 70/103/47 71/108/47 37/36/47
f 63/39/48 97/106/48 98/109/49 64/40/50
f 50/34/51 84/107/51 85/110/51 51/42/51
f 37/36/52 71/108/52 72/111/52 38/44/52
f 64/40/50 98/109/49 99/112/53 65/46/53
f 51/42/54 85/110/54 86/113/54 52/48/54
f 38/44/55 72/111/55 73/114/55 39/50/55
f 65/115/56 99/116/56 100/117/56 66/118/56
f 52/48/57 86/113/57 87/119/57 53/56/57
f 39/50/58 73/114/58 74/120/58 40/58/58
f 66/118/59 100/117/59 101/121/59 67/122/59
f 53/63/60 87/123/60 88/124/60 54/64/60
f 40/58/61 74/120/61 75/125/61 41/66/61
f 67/69/62 101/126/62 102/127/62 68/70/62
f 54/64/63 88/124/63 89/128/63 55/72/63
f 41/66/64 75/125/64 76/129/64 42/74/64
f 68/70/65 102/127/65 69/130/65 35/76/65
f 55/79/66 89/131/66 90/132/66 56/80/66
f 42/74/67 76/129/67 77/133/67 43/82/67
f 56/85/68 90/134/68 91/135/68 57/86/68
f 43/82/69 77/133/69 78/136/69 44/88/69
f 57/86/70 91/135/70 92/137/70 58/90/70
f 44/93/71 78/138/71 79/139/71 45/94/71
f 58/90/72 92/137/72 93/140/72 59/9/72
f 45/94/73 79/139/73 80/96/73 46/13/73
f 59/9/74 93/140/74 94/141/74 60/10/74
f 46/13/75 80/96/75 81/5/75 47/4/75
f 60/142/76 94/143/76 95/99/76 61/21/76
f 113/144/77 147/145/77 148/146/77 114/97/77
f 94/143/78 128/147/78 129/148/78 95/99/78
f 81/5/79 115/98/79 116/149/79 82/6/79
f 95/99/80 129/148/80 130/150/80 96/100/80
f 82/6/81 116/149/81 117/151/81 83/101/81
f 69/102/82 103/152/82 104/153/82 70/103/82
f 96/105/83 130/154/83 131/155/83 97/106/83
f 83/101/84 117/151/84 118/156/84 84/107/84
f 70/103/85 104/153/85 105/157/85 71/108/85
f 97/106/86 131/155/86 132/158/87 98/109/88
f 84/107/89 118/156/89 119/159/89 85/110/89
f 71/108/90 105/157/90 106/160/90 72/111/90
f 98/109/88 132/158/87 133/161/91 99/112/91
f 85/110/92 119/159/92 120/162/92 86/113/92
f 72/111/93 106/160/93 107/163/93 73/114/93
f 99/116/94 133/164/94 134/165/94 100/117/94
f 86/113/95 120/162/95 121/166/95 87/119/95
f 73/114/96 107/163/96 108/167/96 74/120/96
f 100/117/97 134/165/97 135/168/97 101/121/97
f 87/123/98 121/169/98 122/170/98 88/124/98
f 74/120/99 108/167/99 109/171/99 75/125/99
f 101/126/100 135/172/100 136/173/100 102/127/100
f 88/124/101 122/170/101 123/174/101 89/128/101
f 75/125/102 109/171/102 110/175/102 76/129/102
f 102/127/103 136/173/103 103/176/103 69/130/103
f 89/177/104 123/178/104 124/179/104 90/180/104
f 76/129/105 110/175/105 111/181/105 77/133/105
f 90/134/106 124/182/106 125/183/106 91/135/106
f 77/133/107 111/181/107 112/184/107 78/136/107
f 91/135/108 125/183/108 126/185/108 92/137/108
f 78/138/109 112/186/109 113/144/109 79/139/109
f 92/137/110 126/185/110 127/187/110 93/140/110
f 79/139/111 113/144/111 114/97/111 80/96/111
f 93/140/112 127/187/112 128/188/112 94/141/112
f 148/146/113 182/189/113 183/190/113 149/191/113
f 127/187/114 161/192/114 162/193/114 128/188/114
f 114/97/115 148/146/115 149/191/115 115/98/115
f 128/147/116 162/194/116 163/195/116 129/148/116
f 115/98/117 149/191/117 150/196/117 116/149/117
f 129/148/118 163/195/118 164/197/118 130/150/118
f 116/149/119 150/196/119 151/198/119 117/151/119
f 103/152/120 137/199/120 138/200/120 104/153/120
f 130/201/121 164/202/121 165/203/121 131/204/121
f 117/151/122 151/198/122 152/205/122 118/156/122
f 104/153/123 138/200/123 139/206/123 105/157/123
f 131/155/124 165/207/124 166/208/125 132/158/126
f 118/156/127 152/205/127 153/209/127 119/159/127
f 105/157/128 139/206/128 140/210/128 106/160/128
f 132/158/126 166/208/125 167/211/129 133/161/129
f 119/159/130 153/209/130 154/212/130 120/162/130
f 106/160/131 140/210/131 141/213/131 107/163/131
f 133/164/132 167/214/132 168/215/132 134/165/132
f 120/162/133 154/212/133 155/216/133 121/166/133
f 107/163/134 141/213/134 142/217/134 108/167/134
f 134/218/135 168/219/135 169/220/135 135/221/135
f 121/169/136 155/222/136 156/223/136 122/170/136
f 108/167/137 142/217/137 143/224/137 109/171/137
f 135/172/138 169/225/138 170/226/138 136/173/138
f 122/170/139 156/223/139 157/227/139 123/174/139
f 109/171/140 143/224/140 144/228/140 110/175/140
f 136/173/141 170/226/141 137/229/141 103/176/141
f 123/230/142 157/231/142 158/232/142 124/233/142
f 110/175/143 144/228/143 145/234/143 111/181/143
f 124/182/144 158/235/144 159/236/144 125/183/144
f 111/181/145 145/234/145 146/237/145 112/184/145
f 125/183/146 159/236/146 160/238/146 126/185/146
f 112/186/147 146/239/147 147/145/147 113/144/147
f 126/185/148 160/238/148 161/192/148 127/187/148
f 181/240/149 215/241/149 216/242/149 182/189/149
f 162/194/150 196/243/150 197/244/150 163/195/150
f 149/191/151 183/190/151 184/245/151 150/196/151
f 163/195/152 197/244/152 198/246/152 164/197/152
f 150/196/153 184/245/153 185/247/153 151/198/153
f 137/199/154 171/248/154 172/249/154 138/200/154
f 164/250/155 198/251/155 199/252/155 165/207/155
f 151/198/156 185/247/156 186/253/156 152/205/156
f 138/200/157 172/249/157 173/254/157 139/206/157
f 165/207/158 199/252/158 200/255/159 166/208/160
f 152/205/161 186/253/161 187/256/161 153/209/161
f 139/206/162 173/254/162 174/257/162 140/210/162
f 166/208/160 200/255/159 201/258/163 167/211/163
f 153/209/164 187/256/164 188/259/164 154/212/164
f 140/210/165 174/257/165 175/260/165 141/213/165
f 167/214/166 201/261/166 202/262/166 168/215/166
f 154/212/167 188/259/167 189/263/167 155/216/167
f 141/213/168 175/260/168 176/264/168 142/217/168
f 168/215/169 202/262/169 203/265/169 169/266/169
f 155/222/170 189/267/170 190/268/170 156/223/170
f 142/217/171 176/264/171 177/269/171 143/224/171
f 169/225/172 203/270/172 204/271/172 170/226/172
f 156/223/173 190/268/173 191/272/173 157/227/173
f 143/224/174 177/269/174 178/273/174 144/228/174
f 170/226/175 204/271/175 171/274/175 137/229/175
f 157/275/176 191/276/176 192/277/176 158/278/176
f 144/228/177 178/273/177 179/279/177 145/234/177
f 158/235/178 192/280/178 193/281/178 159/236/178
f 145/234/179 179/279/179 180/282/179 146/237/179
f 159/236/180 193/281/180 194/283/180 160/238/180
f 146/239/181 180/284/181 181/240/181 147/145/181
f 160/238/182 194/283/182 195/285/182 161/192/182
f 147/145/183 181/240/183 182/189/183 148/146/183
f 161/192/184 195/285/184 196/286/184 162/193/184
f 213/287/185 216/288/185 215/289/185 214/290/185
f 195/285/186 229/291/186 230/292/186 196/286/186
f 182/189/187 216/242/187 217/293/187 183/190/187
f 196/243/188 230/294/188 231/295/188 197/244/188
f 183/190/189 217/293/189 218/296/189 184/245/189
f 197/244/190 231/295/190 232/297/190 198/246/190
f 184/245/191 218/296/191 219/298/191 185/247/191
f 171/248/192 205/299/192 206/300/192 172/249/192
f 198/251/193 232/301/193 233/302/193 199/252/193
f 185/247/194 219/298/194 220/303/194 186/253/194
f 172/249/195 206/300/195 207/304/195 173/254/195
f 199/252/196 233/302/196 234/305/197 200/255/198
f 186/253/199 220/303/199 221/306/199 187/256/199
f 173/254/200 207/304/200 208/307/200 174/257/200
f 200/255/198 234/305/197 235/308/201 201/258/201
f 187/256/202 221/306/202 222/309/202 188/259/202
f 174/257/203 208/307/203 209/310/203 175/260/203
f 201/261/204 235/311/204 236/312/204 202/262/204
f 188/259/205 222/309/205 223/313/205 189/263/205
f 175/260/206 209/310/206 210/314/206 176/264/206
f 202/262/207 236/312/207 237/315/207 203/265/207
f 189/267/208 223/316/208 224/317/208 190/268/208
f 176/264/209 210/314/209 211/318/209 177/269/209
f 203/270/210 237/319/210 238/320/210 204/271/210
f 190/268/211 224/317/211 225/321/211 191/272/211
f 177/269/212 211/318/212 212/322/212 178/273/212
f 204/271/213 238/320/213 205/323/213 171/274/213
f 191/276/214 225/324/214 226/325/214 192/277/214
f 178/273/215 212/322/215 213/326/215 179/279/215
f 192/280/216 226/327/216 227/328/216 193/281/216
f 179/279/217 213/326/217 214/329/217 180/282/217
f 193/281/218 227/328/218 228/330/218 194/283/218
f 180/284/219 214/331/219 215/241/219 181/240/219
f 194/283/220 228/330/220 229/291/220 195/285/220
f 15/332/221 294/333/221 245/334/222 246/335/223
f 25/336/1 26/337/1 27/338/1 287/339/1
f 245/334/222 244/340/1 247/341/1 246/335/223
f 244/340/1 243/342/1 248/343/1 247/341/1
f 243/342/1 242/344/1 249/345/1 248/343/1
f 242/344/1 241/346/1 250/347/1 249/345/1
f 241/346/1 240/348/1 251/349/1 250/347/1
f 240/348/224 28/350/224 239/351/224 251/349/224
f 303/33/10 262/352/10 29/353/10 302/354/10
f 63/32/10 262/352/10 303/33/10
f 11/355/40 285/95/40 255/12/40 12/356/40
f 24/357/39 284/91/39 253/8/39 25/358/39
f 10/359/38 283/92/38 285/95/38 11/355/38
f 23/360/37 282/87/37 284/91/37 24/357/37
f 9/361/36 281/83/36 283/89/36 10/362/36
f 22/363/35 280/84/35 282/87/35 23/360/35
f 8/364/34 279/75/34 281/83/34 9/361/34
f 21/365/33 278/78/33 280/81/33 22/366/33
f 34/367/32 277/71/32 261/77/32 1/368/32
f 7/369/31 276/67/31 279/75/31 8/364/31
f 20/370/30 275/65/30 278/73/30 21/371/30
f 33/372/29 274/68/29 277/71/29 34/367/29
f 6/373/28 273/59/28 276/67/28 7/369/28
f 19/374/27 272/62/27 275/65/27 20/370/27
f 32/375/26 326/55/26 274/61/26 33/376/26
f 5/377/25 324/51/25 273/59/25 6/373/25
f 18/378/24 269/49/24 272/57/24 19/379/24
f 268/380/225 356/381/225 341/382/225 31/383/225
f 308/384/226 346/385/226 348/386/226 309/387/226
f 17/388/20 266/43/20 269/49/20 18/378/20
f 30/389/227 265/41/16 322/47/19 321/390/19
f 3/391/18 264/37/18 320/45/18 319/392/18
f 16/393/17 306/35/17 266/43/17 17/388/17
f 29/394/14 262/38/14 265/41/16 30/389/227
f 2/395/13 260/29/13 264/37/13 3/391/13
f 15/396/228 259/397/228 263/398/228 294/399/228
f 28/350/229 258/400/229 286/401/229 239/351/229
f 1/402/9 261/26/9 260/29/9 2/395/9
f 14/403/8 257/19/8 305/25/8 295/404/8
f 27/405/7 256/20/7 304/23/7 287/406/7
f 13/407/6 254/14/6 257/19/6 14/403/6
f 26/408/5 252/15/5 256/18/5 27/409/5
f 12/356/4 255/12/4 254/14/4 13/407/4
f 25/358/3 253/8/3 252/11/3 26/410/3
f 240/411/230 288/412/230 287/406/230 28/413/230
f 241/414/231 289/415/231 288/412/231 240/411/231
f 242/416/232 290/417/232 289/415/232 241/414/232
f 243/418/233 291/419/233 290/417/233 242/416/233
f 244/420/234 292/421/234 291/419/234 243/418/234
f 245/422/235 293/423/235 292/421/235 244/420/235
f 294/424/236 16/425/236 293/423/236 245/422/236
f 246/426/237 296/427/237 295/428/237 15/429/237
f 247/430/238 297/431/238 296/427/238 246/426/238
f 248/432/239 298/433/239 297/431/239 247/430/239
f 249/434/240 299/435/240 298/433/240 248/432/240
f 250/436/241 300/437/241 299/435/241 249/434/241
f 251/438/242 301/439/242 300/437/242 250/436/242
f 239/440/243 302/441/243 301/439/243 251/438/243
f 286/442/244 303/33/244 302/354/244 239/443/244
f 28/413/245 287/406/245 304/23/245 258/444/245
f 15/396/246 295/404/246 305/25/246 259/397/246
f 263/445/247 306/446/247 16/425/247 294/424/247
f 259/397/11 305/25/11 306/35/11 263/398/11
f 258/447/248 304/30/10 303/33/10 286/442/248
f 314/448/249 351/449/249 349/450/249 315/451/249
f 300/452/1 301/453/1 302/454/1 29/455/1
f 267/456/250 355/457/250 339/458/250 4/459/250
f 307/460/251 344/461/251 346/385/251 308/384/251
f 313/462/252 353/463/252 351/449/252 314/448/252
f 31/464/253 341/465/253 344/461/253 307/460/253
f 4/466/254 339/467/254 353/463/254 313/462/254
f 270/468/255 357/469/255 355/470/255 267/471/255
f 4/472/256 319/392/256 320/45/256 267/473/256
f 31/474/257 321/475/257 322/52/257 268/476/257
f 270/477/258 324/51/22 5/377/259 323/478/259
f 271/479/260 326/55/260 32/375/260 325/480/260
f 268/476/23 322/52/23 326/55/23 271/479/23
f 267/473/21 320/45/21 324/51/22 270/477/258
f 307/481/261 327/482/262 321/483/263 31/484/264
f 308/485/1 328/486/1 327/482/262 307/481/261
f 309/487/1 329/488/1 328/486/1 308/485/1
f 310/489/1 330/490/1 329/488/1 309/487/1
f 311/491/1 331/492/1 330/490/1 310/489/1
f 312/493/1 332/494/1 331/492/1 311/491/1
f 323/495/265 5/496/265 332/494/265 312/493/265
f 313/497/266 333/498/266 319/499/266 4/500/266
f 314/501/1 334/502/1 333/498/1 313/497/1
f 315/503/1 335/504/1 334/502/1 314/501/1
f 316/505/1 336/506/1 335/504/1 315/503/1
f 317/507/1 337/508/1 336/506/1 316/505/1
f 318/509/1 338/510/1 337/508/1 317/507/1
f 325/511/267 32/512/267 338/510/267 318/509/267
f 341/513/268 356/514/268 358/515/268 342/516/268
f 339/517/269 355/518/269 357/519/269 340/520/269
f 339/521/270 340/522/270 354/523/270 353/524/270
f 344/525/271 341/526/272 342/527/272 343/528/273
f 346/529/1 344/525/271 343/528/273 345/530/1
f 348/531/1 346/529/1 345/530/1 347/532/1
f 350/533/1 348/531/1 347/532/1 349/534/1
f 352/535/1 350/533/1 349/534/1 351/536/1
f 354/523/1 352/535/1 351/536/1 353/524/1
f 315/451/274 349/450/274 347/537/274 316/538/274
f 309/387/275 348/386/275 350/539/275 310/540/275
f 323/541/276 340/542/276 357/469/276 270/468/276
f 316/543/277 347/544/277 345/545/277 317/546/277
f 310/540/278 350/539/278 352/547/278 311/548/278
f 325/549/279 342/550/279 358/551/279 271/552/279
f 317/546/280 345/545/280 343/553/280 318/554/280
f 311/548/281 352/547/281 354/555/281 312/556/281
f 271/557/282 358/558/282 356/559/282 268/560/282
f 318/554/283 343/553/283 342/550/283 325/549/283
f 312/556/284 354/555/284 340/561/284 323/562/284
f 24/563/1 288/564/1 289/565/1 290/566/1
f 23/567/1 24/563/1 290/566/1 291/568/1
f 25/336/1 287/339/1 288/564/1 24/563/1
f 292/569/1 22/570/1 23/567/1 291/568/1
f 21/571/1 18/572/1 19/573/1 20/574/1
f 293/575/1 21/571/1 22/570/1 292/569/1
f 16/576/1 17/577/1 21/571/1 293/575/1
f 17/577/1 18/572/1 21/571/1
f 30/578/1 321/483/263 327/482/262 328/486/1
f 300/452/1 29/455/1 30/578/1 328/486/1
f 299/579/1 300/452/1 328/486/1 329/488/1
f 298/580/1 299/579/1 329/488/1 330/490/1
f 297/581/1 298/580/1 330/490/1 331/492/1
f 332/494/1 296/582/1 297/581/1 331/492/1
f 5/496/1 295/583/1 296/582/1 332/494/1
f 6/584/1 14/585/1 295/583/1 5/496/1
f 7/586/1 13/587/1 14/585/1 6/584/1
f 8/588/1 12/589/1 13/587/1 7/586/1
f 9/590/1 12/589/1 8/588/1
f 10/591/1 11/592/1 12/589/1 9/590/1
f 2/593/1 3/1/1 34/3/1 1/594/1
f 319/499/1 333/498/1 334/502/1 3/1/1
f 334/502/1 335/504/1 336/506/1 3/1/1
f 336/506/1 337/508/1 338/510/1 3/1/1
f 338/510/1 32/512/1 33/2/1 3/1/1
f 205/595/185 238/596/185 237/597/185 206/598/185
f 206/598/185 237/597/185 236/599/185 207/600/185
f 236/599/185 235/601/185 234/602/185 207/600/185
f 207/600/185 234/602/185 208/603/185
f 208/603/185 234/602/185 233/604/185 209/605/185
f 209/605/185 233/604/185 232/606/185 210/607/185
f 210/607/185 232/606/185 231/608/185 211/609/185
f 211/609/185 231/608/185 230/610/185 212/611/185
f 212/611/185 230/610/185 229/612/185 213/287/185
f 225/613/185 221/614/185 220/615/185 219/616/185
f 229/612/185 228/617/185 216/288/185 213/287/185
f 228/617/185 227/618/185 217/619/185 216/288/185
f 227/618/185 226/620/185 218/621/185 217/619/185
f 226/620/185 225/613/185 219/616/185 218/621/185
f 224/622/185 221/614/185 225/613/185
f 223/623/185 222/624/185 221/614/185 224/622/185
