# Blender 4.3.2
# www.blender.org
mtllib Trampoline.mtl
o Cylinder.002
v -3.279631 -1.113911 0.186594
v -3.047364 -0.064047 0.171130
v -3.318750 -1.106447 0.105772
v -3.086483 -0.056583 0.090307
v -3.402130 -1.088428 0.076767
v -3.169863 -0.038564 0.061302
v -3.480929 -1.070408 0.116570
v -3.248662 -0.020545 0.101105
v -3.508987 -1.062945 0.201865
v -3.276720 -0.013081 0.186401
v -3.469868 -1.070408 0.282688
v -3.237602 -0.020545 0.267223
v -3.386488 -1.088428 0.311693
v -3.154221 -0.038564 0.296228
v -3.307689 -1.106447 0.271890
v -3.075423 -0.056583 0.256425
v -3.263688 -1.183915 0.185533
v -3.313025 -1.174502 0.083597
v -3.418188 -1.151775 0.047015
v -3.517571 -1.129048 0.097216
v -3.552959 -1.119635 0.204793
v -3.503622 -1.129048 0.306729
v -3.398459 -1.151775 0.343311
v -3.299076 -1.174502 0.293110
v -3.302068 -1.357395 0.188088
v -3.351405 -1.347982 0.086152
v -3.456568 -1.325255 0.049570
v -3.555951 -1.302528 0.099771
v -3.591339 -1.293115 0.207349
v -3.542001 -1.302528 0.309285
v -3.436840 -1.325255 0.345867
v -3.337456 -1.347982 0.295666
v 0.000000 -1.113909 3.255123
v -0.000001 -0.064045 3.022341
v 0.083243 -1.106445 3.288785
v 0.083242 -0.056581 3.056004
v 0.117723 -1.088426 3.370054
v 0.117723 -0.038562 3.137273
v 0.083242 -1.070406 3.451324
v 0.083242 -0.020543 3.218542
v 0.000000 -1.062943 3.484986
v -0.000001 -0.013079 3.252205
v -0.083243 -1.070406 3.451324
v -0.083243 -0.020543 3.218542
v -0.117723 -1.088426 3.370054
v -0.117724 -0.038562 3.137273
v -0.083243 -1.106445 3.288785
v -0.083243 -0.056581 3.056004
v 0.000000 -1.183913 3.239144
v 0.104989 -1.174500 3.281600
v 0.148477 -1.151773 3.384100
v 0.104989 -1.129046 3.486600
v 0.000000 -1.119632 3.529056
v -0.104989 -1.129046 3.486599
v -0.148476 -1.151773 3.384100
v -0.104989 -1.174500 3.281600
v 0.000000 -1.357394 3.277609
v 0.104989 -1.347980 3.320066
v 0.148477 -1.325253 3.422565
v 0.104989 -1.302526 3.525064
v 0.000000 -1.293113 3.567521
v -0.104989 -1.302526 3.525064
v -0.148476 -1.325253 3.422565
v -0.104989 -1.347980 3.320065
v 0.000001 -1.113909 -3.318663
v 0.000000 -0.064045 -3.085881
v 0.083244 -1.106445 -3.352326
v 0.083243 -0.056581 -3.119544
v 0.117723 -1.088425 -3.433595
v 0.117723 -0.038561 -3.200813
v 0.083244 -1.070406 -3.514864
v 0.083243 -0.020542 -3.282082
v 0.000001 -1.062942 -3.548527
v 0.000000 -0.013078 -3.315745
v -0.083242 -1.070406 -3.514864
v -0.083243 -0.020542 -3.282082
v -0.117722 -1.088425 -3.433595
v -0.117723 -0.038562 -3.200813
v -0.083242 -1.106445 -3.352326
v -0.083243 -0.056581 -3.119544
v 0.000001 -1.183913 -3.302685
v 0.104990 -1.174499 -3.345141
v 0.148478 -1.151772 -3.447641
v 0.104990 -1.129045 -3.550140
v 0.000001 -1.119632 -3.592597
v -0.104988 -1.129046 -3.550140
v -0.148476 -1.151772 -3.447641
v -0.104988 -1.174499 -3.345141
v 0.000001 -1.357393 -3.341150
v 0.104990 -1.347979 -3.383606
v 0.148478 -1.325252 -3.486105
v 0.104990 -1.302526 -3.588605
v 0.000001 -1.293112 -3.631062
v -0.104988 -1.302526 -3.588605
v -0.148475 -1.325253 -3.486105
v -0.104988 -1.347979 -3.383606
v 3.279632 -1.113907 -0.250135
v 3.047364 -0.064043 -0.234670
v 3.307691 -1.106443 -0.335430
v 3.075422 -0.056579 -0.319965
v 3.386489 -1.088423 -0.375233
v 3.154221 -0.038559 -0.359768
v 3.469869 -1.070404 -0.346228
v 3.237602 -0.020540 -0.330763
v 3.508988 -1.062940 -0.265406
v 3.276720 -0.013076 -0.249941
v 3.480930 -1.070404 -0.180111
v 3.248662 -0.020540 -0.164646
v 3.402131 -1.088423 -0.140307
v 3.169863 -0.038559 -0.124842
v 3.318752 -1.106443 -0.169312
v 3.086483 -0.056579 -0.153847
v 3.263689 -1.183911 -0.249073
v 3.299077 -1.174497 -0.356651
v 3.398461 -1.151770 -0.406852
v 3.503623 -1.129043 -0.370270
v 3.552961 -1.119630 -0.268334
v 3.517572 -1.129043 -0.160756
v 3.418189 -1.151770 -0.110555
v 3.313027 -1.174497 -0.147137
v 3.302069 -1.357391 -0.251629
v 3.337457 -1.347977 -0.359206
v 3.436841 -1.325250 -0.409407
v 3.542003 -1.302523 -0.372825
v 3.591341 -1.293110 -0.270889
v 3.555953 -1.302523 -0.163312
v 3.456569 -1.325250 -0.113111
v 3.351407 -1.347977 -0.149693
v 3.339999 0.000005 -0.039472
v 3.255000 0.104410 -0.039472
v 3.085000 0.104410 -0.039472
v 3.000000 0.000004 -0.039472
v 3.084999 -0.104401 -0.039472
v 3.255000 -0.104400 -0.039472
v 3.191613 0.000004 -1.023954
v 3.110389 0.104410 -0.998900
v 2.947941 0.104410 -0.948792
v 2.866718 0.000004 -0.923738
v 2.947942 -0.104401 -0.948792
v 3.110389 -0.104401 -0.998900
v 2.759638 0.000004 -1.920961
v 2.689407 0.104410 -1.873079
v 2.548947 0.104409 -1.777314
v 2.478716 0.000004 -1.729432
v 2.548947 -0.104401 -1.777314
v 2.689407 -0.104400 -1.873079
v 2.082456 0.000004 -2.650789
v 2.029459 0.104409 -2.584334
v 1.923465 0.104409 -2.451422
v 1.870469 0.000004 -2.384966
v 1.923465 -0.104401 -2.451422
v 2.029458 -0.104401 -2.584334
v 1.220239 0.000003 -3.148590
v 1.189185 0.104409 -3.069466
v 1.127077 0.104409 -2.911217
v 1.096023 0.000003 -2.832093
v 1.127077 -0.104402 -2.911217
v 1.189185 -0.104402 -3.069466
v 0.249598 0.000003 -3.370133
v 0.243246 0.104408 -3.285371
v 0.230542 0.104408 -3.115846
v 0.224190 0.000003 -3.031084
v 0.230542 -0.104402 -3.115846
v 0.243246 -0.104402 -3.285371
v -0.743220 0.000002 -3.295732
v -0.724305 0.104407 -3.212862
v -0.686477 0.104407 -3.047124
v -0.667563 0.000002 -2.964256
v -0.686477 -0.104403 -3.047124
v -0.724305 -0.104403 -3.212863
v -1.669999 0.000001 -2.931997
v -1.627500 0.104407 -2.858385
v -1.542500 0.104407 -2.711161
v -1.500000 0.000001 -2.637549
v -1.542499 -0.104404 -2.711161
v -1.627500 -0.104404 -2.858385
v -2.448394 0.000001 -2.311249
v -2.386085 0.104406 -2.253434
v -2.261465 0.104406 -2.137805
v -2.199156 0.000001 -2.079990
v -2.261465 -0.104404 -2.137805
v -2.386084 -0.104404 -2.253434
v -3.009236 0.000000 -1.488644
v -2.932654 0.104405 -1.451764
v -2.779489 0.104406 -1.378004
v -2.702907 0.000001 -1.341124
v -2.779489 -0.104405 -1.378004
v -2.932653 -0.104405 -1.451764
v -3.302695 0.000000 -0.537273
v -3.218645 0.104405 -0.524604
v -3.050544 0.104405 -0.499267
v -2.966493 0.000000 -0.486599
v -3.050543 -0.104405 -0.499267
v -3.218645 -0.104405 -0.524605
v -3.302696 -0.000000 0.458328
v -3.218645 0.104405 0.445659
v -3.050544 0.104405 0.420322
v -2.966493 0.000000 0.407654
v -3.050543 -0.104405 0.420322
v -3.218645 -0.104405 0.445659
v -3.009237 0.000000 1.409698
v -2.932655 0.104405 1.372818
v -2.779490 0.104405 1.299058
v -2.702907 0.000000 1.262178
v -2.779490 -0.104405 1.299058
v -2.932654 -0.104405 1.372818
v -2.448394 0.000000 2.232304
v -2.386085 0.104405 2.174489
v -2.261466 0.104406 2.058860
v -2.199156 0.000001 2.001045
v -2.261465 -0.104405 2.058860
v -2.386085 -0.104405 2.174489
v -1.670000 0.000001 2.853053
v -1.627500 0.104406 2.779441
v -1.542500 0.104406 2.632216
v -1.500000 0.000001 2.558604
v -1.542500 -0.104404 2.632216
v -1.627500 -0.104404 2.779441
v -0.743221 0.000001 3.216787
v -0.724306 0.104407 3.133918
v -0.686478 0.104407 2.968180
v -0.667563 0.000001 2.885311
v -0.686477 -0.104404 2.968180
v -0.724306 -0.104403 3.133918
v 0.249597 0.000002 3.291188
v 0.243245 0.104407 3.206426
v 0.230541 0.104407 3.036901
v 0.224189 0.000002 2.952139
v 0.230541 -0.104403 3.036901
v 0.243245 -0.104403 3.206426
v 1.220237 0.000003 3.069647
v 1.189183 0.104408 2.990522
v 1.127075 0.104408 2.832273
v 1.096021 0.000003 2.753149
v 1.127075 -0.104402 2.832273
v 1.189183 -0.104402 2.990522
v 2.082454 0.000004 2.571846
v 2.029457 0.104409 2.505390
v 1.923465 0.104408 2.372479
v 1.870467 0.000003 2.306023
v 1.923464 -0.104402 2.372479
v 2.029457 -0.104402 2.505390
v 2.759637 0.000004 1.842016
v 2.689407 0.104409 1.794134
v 2.548946 0.104409 1.698370
v 2.478716 0.000004 1.650488
v 2.548947 -0.104401 1.698370
v 2.689407 -0.104401 1.794134
v 3.191612 0.000004 0.945010
v 3.110389 0.104410 0.919956
v 2.947941 0.104410 0.869848
v 2.866718 0.000004 0.844793
v 2.947942 -0.104401 0.869848
v 3.110389 -0.104401 0.919956
vn 0.8746 -0.2000 -0.4418
vn 0.3114 -0.0828 -0.9467
vn -0.4342 0.0828 -0.8970
vn -0.9254 0.2000 -0.3219
vn -0.8746 0.2000 0.4418
vn -0.3114 0.0828 0.9467
vn 0.2160 0.9763 -0.0144
vn 0.4342 -0.0828 0.8970
vn 0.9254 -0.2000 0.3219
vn -0.7611 0.5748 -0.3007
vn 0.4843 0.3157 0.8159
vn 0.3719 0.3157 -0.8729
vn -0.7145 0.5748 0.3989
vn 0.9343 0.2084 0.2891
vn 0.8878 0.2084 -0.4104
vn -0.3111 0.4675 -0.8275
vn -0.1986 0.4675 0.8614
vn -0.2160 -0.9763 0.0144
vn -0.3827 0.2000 0.9020
vn -0.9239 0.0828 0.3736
vn -0.9239 -0.0828 -0.3736
vn -0.3827 -0.2000 -0.9020
vn 0.3827 -0.2000 -0.9020
vn 0.9239 -0.0828 -0.3736
vn -0.0000 -0.9763 0.2165
vn 0.9239 0.0828 0.3736
vn 0.3827 0.2000 0.9020
vn -0.3505 -0.5748 -0.7394
vn 0.8463 -0.3157 0.4291
vn -0.8463 -0.3157 0.4291
vn 0.3505 -0.5748 -0.7394
vn 0.3506 -0.2084 0.9131
vn -0.3505 -0.2084 0.9131
vn -0.8463 -0.4675 -0.2554
vn 0.8463 -0.4675 -0.2554
vn -0.0000 0.9763 -0.2165
vn 0.3827 -0.2000 0.9020
vn 0.9239 -0.0828 0.3736
vn 0.9239 0.0828 -0.3736
vn 0.3827 0.2000 -0.9020
vn -0.3827 0.2000 -0.9020
vn -0.9239 0.0828 -0.3736
vn -0.0000 0.9763 0.2165
vn -0.9239 -0.0828 0.3736
vn -0.3827 -0.2000 0.9020
vn 0.3505 0.5748 -0.7394
vn -0.8463 0.3157 0.4291
vn 0.8463 0.3157 0.4291
vn -0.3505 0.5748 -0.7394
vn -0.3505 0.2084 0.9131
vn 0.3506 0.2084 0.9131
vn 0.8463 0.4675 -0.2554
vn -0.8463 0.4675 -0.2554
vn -0.0000 -0.9763 -0.2165
vn 0.9254 0.2000 0.3219
vn 0.4342 0.0828 0.8970
vn -0.3114 -0.0828 0.9467
vn -0.8746 -0.2000 0.4418
vn -0.9254 -0.2000 -0.3219
vn -0.4342 -0.0828 -0.8970
vn 0.2160 -0.9763 -0.0144
vn 0.3114 0.0828 -0.9467
vn 0.8746 0.2000 -0.4418
vn -0.7145 -0.5748 0.3989
vn 0.3719 -0.3157 -0.8729
vn 0.4843 -0.3157 0.8159
vn -0.7611 -0.5748 -0.3007
vn 0.8878 -0.2084 -0.4104
vn 0.9343 -0.2084 0.2891
vn -0.1986 -0.4675 0.8614
vn -0.3111 -0.4675 -0.8275
vn -0.2160 0.9763 0.0144
vn -0.7702 -0.6271 0.1161
vn -0.0000 -1.0000 -0.0000
vn 0.7702 -0.6271 -0.1161
vn 0.7702 0.6271 -0.1161
vn -0.0000 1.0000 -0.0000
vn -0.7702 0.6271 0.1161
vn -0.7018 -0.6271 0.3380
vn 0.7018 -0.6271 -0.3380
vn 0.7018 0.6271 -0.3380
vn -0.7018 0.6271 0.3380
vn -0.5710 -0.6271 0.5298
vn 0.5710 -0.6271 -0.5298
vn 0.5710 0.6271 -0.5298
vn -0.5710 0.6271 0.5298
vn -0.3895 -0.6271 0.6746
vn 0.3895 -0.6271 -0.6746
vn 0.3895 0.6271 -0.6746
vn -0.3895 0.6271 0.6746
vn -0.1733 -0.6271 0.7594
vn 0.1733 -0.6271 -0.7594
vn 0.1733 0.6271 -0.7594
vn -0.1733 0.6271 0.7594
vn 0.0582 -0.6271 0.7768
vn -0.0582 -0.6271 -0.7768
vn -0.0582 0.6271 -0.7768
vn 0.0582 0.6271 0.7768
vn 0.2846 -0.6271 0.7251
vn -0.2846 -0.6271 -0.7251
vn -0.2846 0.6271 -0.7251
vn 0.2846 0.6271 0.7251
vn 0.4857 -0.6271 0.6090
vn -0.4857 -0.6271 -0.6090
vn -0.4857 0.6271 -0.6090
vn 0.4857 0.6271 0.6090
vn 0.6436 -0.6271 0.4388
vn -0.6436 -0.6271 -0.4388
vn -0.6436 0.6271 -0.4388
vn 0.6436 0.6271 0.4388
vn 0.7443 -0.6271 0.2296
vn -0.7443 -0.6271 -0.2296
vn -0.7443 0.6271 -0.2296
vn 0.7443 0.6271 0.2296
vn 0.7789 -0.6271 -0.0000
vn -0.7789 -0.6271 -0.0000
vn -0.7789 0.6271 -0.0000
vn 0.7789 0.6271 -0.0000
vn 0.7443 -0.6271 -0.2296
vn -0.7443 -0.6271 0.2296
vn -0.7443 0.6271 0.2296
vn 0.7443 0.6271 -0.2296
vn 0.6436 -0.6271 -0.4388
vn -0.6436 -0.6271 0.4388
vn -0.6436 0.6271 0.4388
vn 0.6436 0.6271 -0.4388
vn 0.4857 -0.6271 -0.6090
vn -0.4857 -0.6271 0.6090
vn -0.4857 0.6271 0.6090
vn 0.4857 0.6271 -0.6090
vn 0.2846 -0.6271 -0.7251
vn -0.2846 -0.6271 0.7251
vn -0.2846 0.6271 0.7251
vn 0.2846 0.6271 -0.7251
vn 0.0582 -0.6271 -0.7768
vn -0.0582 -0.6271 0.7768
vn -0.0582 0.6271 0.7768
vn 0.0582 0.6271 -0.7768
vn -0.1733 -0.6271 -0.7594
vn 0.1733 -0.6271 0.7594
vn 0.1733 0.6271 0.7594
vn -0.1733 0.6271 -0.7594
vn -0.3895 -0.6271 -0.6746
vn 0.3895 -0.6271 0.6746
vn 0.3895 0.6271 0.6746
vn -0.3895 0.6271 -0.6746
vn -0.5710 -0.6271 -0.5298
vn 0.5710 -0.6271 0.5298
vn 0.5710 0.6271 0.5298
vn -0.5710 0.6271 -0.5298
vn -0.7018 -0.6271 -0.3380
vn 0.7018 -0.6271 0.3380
vn 0.7018 0.6271 0.3380
vn -0.7018 0.6271 -0.3380
vn -0.7702 -0.6271 -0.1161
vn 0.7702 -0.6271 0.1161
vn 0.7702 0.6271 0.1161
vn -0.7702 0.6271 -0.1161
vt 0.748686 0.655568
vt 0.748686 0.717786
vt 0.733132 0.717786
vt 0.733132 0.655568
vt 0.717577 0.717786
vt 0.717577 0.655568
vt 0.702023 0.717786
vt 0.702023 0.655568
vt 0.686468 0.717786
vt 0.686468 0.655568
vt 0.670914 0.717786
vt 0.670914 0.655568
vt 0.655360 0.717786
vt 0.655360 0.655568
vt 0.676477 0.645577
vt 0.655360 0.654324
vt 0.634242 0.645577
vt 0.625495 0.624460
vt 0.634242 0.603342
vt 0.655360 0.594595
vt 0.676477 0.603342
vt 0.685224 0.624460
vt 0.639805 0.717786
vt 0.639805 0.655568
vt 0.624251 0.717786
vt 0.624251 0.655568
vt 0.717577 0.654324
vt 0.738694 0.645577
vt 0.747442 0.624460
vt 0.738694 0.603342
vt 0.717577 0.594595
vt 0.696460 0.603342
vt 0.687713 0.624460
vt 0.696460 0.645577
vt 0.732747 0.872937
vt 0.739631 0.872937
vt 0.739631 0.897028
vt 0.732747 0.897028
vt 0.739631 0.921119
vt 0.732747 0.921119
vt 0.739631 0.945211
vt 0.732747 0.945211
vt 0.732747 0.800662
vt 0.739631 0.800662
vt 0.739631 0.824754
vt 0.732747 0.824754
vt 0.739631 0.848845
vt 0.732747 0.848845
vt 0.746514 0.872937
vt 0.746514 0.897028
vt 0.746514 0.921119
vt 0.746514 0.945211
vt 0.746514 0.800662
vt 0.746514 0.824754
vt 0.746514 0.848845
vt 0.753397 0.872937
vt 0.753397 0.897028
vt 0.753397 0.921119
vt 0.753397 0.945211
vt 0.753397 0.800662
vt 0.753397 0.824754
vt 0.753397 0.848845
vt 0.760280 0.872937
vt 0.760280 0.897028
vt 0.760280 0.921119
vt 0.760280 0.945211
vt 0.760280 0.800662
vt 0.760280 0.824754
vt 0.760280 0.848845
vt 0.767164 0.872937
vt 0.767164 0.897028
vt 0.767164 0.921119
vt 0.767164 0.945211
vt 0.767164 0.800662
vt 0.767164 0.824754
vt 0.767164 0.848845
vt 0.774047 0.872937
vt 0.774047 0.897028
vt 0.774047 0.921119
vt 0.774047 0.945211
vt 0.774047 0.800662
vt 0.774047 0.824754
vt 0.774047 0.848845
vt 0.780930 0.872937
vt 0.780930 0.897028
vt 0.780930 0.921119
vt 0.780930 0.945211
vt 0.780930 0.800662
vt 0.780930 0.824754
vt 0.780930 0.848845
vt 0.787813 0.872937
vt 0.787813 0.897028
vt 0.787813 0.921119
vt 0.787813 0.945211
vt 0.787813 0.800662
vt 0.787813 0.824754
vt 0.787813 0.848845
vt 0.794697 0.872937
vt 0.794697 0.897028
vt 0.794697 0.921119
vt 0.794697 0.945211
vt 0.794697 0.800662
vt 0.794697 0.824754
vt 0.794697 0.848845
vt 0.801580 0.872937
vt 0.801580 0.897028
vt 0.801580 0.921119
vt 0.801580 0.945211
vt 0.801580 0.800662
vt 0.801580 0.824754
vt 0.801580 0.848845
vt 0.657031 0.872937
vt 0.663915 0.872937
vt 0.663915 0.897028
vt 0.657031 0.897028
vt 0.663915 0.921119
vt 0.657031 0.921119
vt 0.663915 0.945211
vt 0.657031 0.945211
vt 0.657031 0.800662
vt 0.663915 0.800662
vt 0.663915 0.824754
vt 0.657031 0.824754
vt 0.663915 0.848845
vt 0.657031 0.848845
vt 0.670798 0.872937
vt 0.670798 0.897028
vt 0.670798 0.921119
vt 0.670798 0.945211
vt 0.670798 0.800662
vt 0.670798 0.824754
vt 0.670798 0.848845
vt 0.677681 0.872937
vt 0.677681 0.897028
vt 0.677681 0.921119
vt 0.677681 0.945211
vt 0.677681 0.800662
vt 0.677681 0.824754
vt 0.677681 0.848845
vt 0.684564 0.872937
vt 0.684564 0.897028
vt 0.684564 0.921119
vt 0.684564 0.945211
vt 0.684564 0.800662
vt 0.684564 0.824754
vt 0.684564 0.848845
vt 0.691448 0.872937
vt 0.691448 0.897028
vt 0.691448 0.921119
vt 0.691448 0.945211
vt 0.691448 0.800662
vt 0.691448 0.824754
vt 0.691448 0.848845
vt 0.698331 0.872937
vt 0.698331 0.897028
vt 0.698331 0.921119
vt 0.698331 0.945211
vt 0.698331 0.800662
vt 0.698331 0.824754
vt 0.698331 0.848845
vt 0.705214 0.872937
vt 0.705214 0.897028
vt 0.705214 0.921119
vt 0.705214 0.945211
vt 0.705214 0.800662
vt 0.705214 0.824754
vt 0.705214 0.848845
vt 0.712097 0.872937
vt 0.712097 0.897028
vt 0.712097 0.921119
vt 0.712097 0.945211
vt 0.712097 0.800662
vt 0.712097 0.824754
vt 0.712097 0.848845
vt 0.718981 0.872937
vt 0.718981 0.897028
vt 0.718981 0.921119
vt 0.718981 0.945211
vt 0.718981 0.800662
vt 0.718981 0.824754
vt 0.718981 0.848845
vt 0.725864 0.872937
vt 0.725864 0.897028
vt 0.725864 0.921119
vt 0.725864 0.945211
vt 0.725864 0.800662
vt 0.725864 0.824754
vt 0.725864 0.848845
vt 0.150786 0.558997
vt 0.214968 0.544348
vt 0.280617 0.549267
vt 0.341899 0.573319
vt 0.393369 0.614365
vt 0.430454 0.668759
vt 0.449859 0.731667
vt 0.449859 0.797500
vt 0.430454 0.860408
vt 0.393369 0.914802
vt 0.341899 0.955848
vt 0.280617 0.979899
vt 0.214968 0.984819
vt 0.150786 0.970170
vt 0.093772 0.937253
vt 0.048995 0.888994
vt 0.020431 0.829681
vt 0.010619 0.764583
vt 0.020431 0.699486
vt 0.048995 0.640172
vt 0.093773 0.591913
s 1
usemtl Material.001
f 1/1/1 3/4/1 4/3/1 2/2/1
f 3/4/2 5/6/2 6/5/2 4/3/2
f 5/6/3 7/8/3 8/7/3 6/5/3
f 7/8/4 9/10/4 10/9/4 8/7/4
f 9/10/5 11/12/5 12/11/5 10/9/5
f 11/12/6 13/14/6 14/13/6 12/11/6
f 4/15/7 6/22/7 8/21/7 10/20/7 12/19/7 14/18/7 16/17/7 2/16/7
f 13/14/8 15/24/8 16/23/8 14/13/8
f 15/24/9 1/26/9 2/25/9 16/23/9
f 7/8/10 20/8/10 21/10/10 9/10/10
f 23/14/8 31/14/8 32/24/8 24/24/8
f 13/14/11 23/14/11 24/24/11 15/24/11
f 3/4/12 18/4/12 19/6/12 5/6/12
f 9/10/13 21/10/13 22/12/13 11/12/13
f 15/24/14 24/24/14 17/26/14 1/26/14
f 1/1/15 17/1/15 18/4/15 3/4/15
f 5/6/16 19/6/16 20/8/16 7/8/16
f 11/12/17 22/12/17 23/14/17 13/14/17
f 25/27/18 32/34/18 31/33/18 30/32/18 29/31/18 28/30/18 27/29/18 26/28/18
f 21/10/5 29/10/5 30/12/5 22/12/5
f 19/6/3 27/6/3 28/8/3 20/8/3
f 17/1/1 25/1/1 26/4/1 18/4/1
f 24/24/9 32/24/9 25/26/9 17/26/9
f 22/12/6 30/12/6 31/14/6 23/14/6
f 20/8/4 28/8/4 29/10/4 21/10/4
f 18/4/2 26/4/2 27/6/2 19/6/2
f 33/1/19 35/4/19 36/3/19 34/2/19
f 35/4/20 37/6/20 38/5/20 36/3/20
f 37/6/21 39/8/21 40/7/21 38/5/21
f 39/8/22 41/10/22 42/9/22 40/7/22
f 41/10/23 43/12/23 44/11/23 42/9/23
f 43/12/24 45/14/24 46/13/24 44/11/24
f 36/15/25 38/22/25 40/21/25 42/20/25 44/19/25 46/18/25 48/17/25 34/16/25
f 45/14/26 47/24/26 48/23/26 46/13/26
f 47/24/27 33/26/27 34/25/27 48/23/27
f 39/8/28 52/8/28 53/10/28 41/10/28
f 55/14/26 63/14/26 64/24/26 56/24/26
f 45/14/29 55/14/29 56/24/29 47/24/29
f 35/4/30 50/4/30 51/6/30 37/6/30
f 41/10/31 53/10/31 54/12/31 43/12/31
f 47/24/32 56/24/32 49/26/32 33/26/32
f 33/1/33 49/1/33 50/4/33 35/4/33
f 37/6/34 51/6/34 52/8/34 39/8/34
f 43/12/35 54/12/35 55/14/35 45/14/35
f 57/27/36 64/34/36 63/33/36 62/32/36 61/31/36 60/30/36 59/29/36 58/28/36
f 53/10/23 61/10/23 62/12/23 54/12/23
f 51/6/21 59/6/21 60/8/21 52/8/21
f 49/1/19 57/1/19 58/4/19 50/4/19
f 56/24/27 64/24/27 57/26/27 49/26/27
f 54/12/24 62/12/24 63/14/24 55/14/24
f 52/8/22 60/8/22 61/10/22 53/10/22
f 50/4/20 58/4/20 59/6/20 51/6/20
f 65/1/37 67/4/37 68/3/37 66/2/37
f 67/4/38 69/6/38 70/5/38 68/3/38
f 69/6/39 71/8/39 72/7/39 70/5/39
f 71/8/40 73/10/40 74/9/40 72/7/40
f 73/10/41 75/12/41 76/11/41 74/9/41
f 75/12/42 77/14/42 78/13/42 76/11/42
f 68/15/43 70/22/43 72/21/43 74/20/43 76/19/43 78/18/43 80/17/43 66/16/43
f 77/14/44 79/24/44 80/23/44 78/13/44
f 79/24/45 65/26/45 66/25/45 80/23/45
f 71/8/46 84/8/46 85/10/46 73/10/46
f 87/14/44 95/14/44 96/24/44 88/24/44
f 77/14/47 87/14/47 88/24/47 79/24/47
f 67/4/48 82/4/48 83/6/48 69/6/48
f 73/10/49 85/10/49 86/12/49 75/12/49
f 79/24/50 88/24/50 81/26/50 65/26/50
f 65/1/51 81/1/51 82/4/51 67/4/51
f 69/6/52 83/6/52 84/8/52 71/8/52
f 75/12/53 86/12/53 87/14/53 77/14/53
f 89/27/54 96/34/54 95/33/54 94/32/54 93/31/54 92/30/54 91/29/54 90/28/54
f 85/10/41 93/10/41 94/12/41 86/12/41
f 83/6/39 91/6/39 92/8/39 84/8/39
f 81/1/37 89/1/37 90/4/37 82/4/37
f 88/24/45 96/24/45 89/26/45 81/26/45
f 86/12/42 94/12/42 95/14/42 87/14/42
f 84/8/40 92/8/40 93/10/40 85/10/40
f 82/4/38 90/4/38 91/6/38 83/6/38
f 97/1/55 99/4/55 100/3/55 98/2/55
f 99/4/56 101/6/56 102/5/56 100/3/56
f 101/6/57 103/8/57 104/7/57 102/5/57
f 103/8/58 105/10/58 106/9/58 104/7/58
f 105/10/59 107/12/59 108/11/59 106/9/59
f 107/12/60 109/14/60 110/13/60 108/11/60
f 100/15/61 102/22/61 104/21/61 106/20/61 108/19/61 110/18/61 112/17/61 98/16/61
f 109/14/62 111/24/62 112/23/62 110/13/62
f 111/24/63 97/26/63 98/25/63 112/23/63
f 103/8/64 116/8/64 117/10/64 105/10/64
f 119/14/62 127/14/62 128/24/62 120/24/62
f 109/14/65 119/14/65 120/24/65 111/24/65
f 99/4/66 114/4/66 115/6/66 101/6/66
f 105/10/67 117/10/67 118/12/67 107/12/67
f 111/24/68 120/24/68 113/26/68 97/26/68
f 97/1/69 113/1/69 114/4/69 99/4/69
f 101/6/70 115/6/70 116/8/70 103/8/70
f 107/12/71 118/12/71 119/14/71 109/14/71
f 121/27/72 128/34/72 127/33/72 126/32/72 125/31/72 124/30/72 123/29/72 122/28/72
f 117/10/59 125/10/59 126/12/59 118/12/59
f 115/6/57 123/6/57 124/8/57 116/8/57
f 113/1/55 121/1/55 122/4/55 114/4/55
f 120/24/63 128/24/63 121/26/63 113/26/63
f 118/12/60 126/12/60 127/14/60 119/14/60
f 116/8/58 124/8/58 125/10/58 117/10/58
f 114/4/56 122/4/56 123/6/56 115/6/56
f 129/35/73 130/38/73 136/37/73 135/36/73
f 130/38/74 131/40/74 137/39/74 136/37/74
f 131/40/75 132/42/75 138/41/75 137/39/75
f 132/43/76 133/46/76 139/45/76 138/44/76
f 133/46/77 134/48/77 140/47/77 139/45/77
f 134/48/78 129/35/78 135/36/78 140/47/78
f 135/36/79 136/37/79 142/50/79 141/49/79
f 136/37/74 137/39/74 143/51/74 142/50/74
f 137/39/80 138/41/80 144/52/80 143/51/80
f 138/44/81 139/45/81 145/54/81 144/53/81
f 139/45/77 140/47/77 146/55/77 145/54/77
f 140/47/82 135/36/82 141/49/82 146/55/82
f 141/49/83 142/50/83 148/57/83 147/56/83
f 142/50/74 143/51/74 149/58/74 148/57/74
f 143/51/84 144/52/84 150/59/84 149/58/84
f 144/53/85 145/54/85 151/61/85 150/60/85
f 145/54/77 146/55/77 152/62/77 151/61/77
f 146/55/86 141/49/86 147/56/86 152/62/86
f 147/56/87 148/57/87 154/64/87 153/63/87
f 148/57/74 149/58/74 155/65/74 154/64/74
f 149/58/88 150/59/88 156/66/88 155/65/88
f 150/60/89 151/61/89 157/68/89 156/67/89
f 151/61/77 152/62/77 158/69/77 157/68/77
f 152/62/90 147/56/90 153/63/90 158/69/90
f 153/63/91 154/64/91 160/71/91 159/70/91
f 154/64/74 155/65/74 161/72/74 160/71/74
f 155/65/92 156/66/92 162/73/92 161/72/92
f 156/67/93 157/68/93 163/75/93 162/74/93
f 157/68/77 158/69/77 164/76/77 163/75/77
f 158/69/94 153/63/94 159/70/94 164/76/94
f 159/70/95 160/71/95 166/78/95 165/77/95
f 160/71/74 161/72/74 167/79/74 166/78/74
f 161/72/96 162/73/96 168/80/96 167/79/96
f 162/74/97 163/75/97 169/82/97 168/81/97
f 163/75/77 164/76/77 170/83/77 169/82/77
f 164/76/98 159/70/98 165/77/98 170/83/98
f 165/77/99 166/78/99 172/85/99 171/84/99
f 166/78/74 167/79/74 173/86/74 172/85/74
f 167/79/100 168/80/100 174/87/100 173/86/100
f 168/81/101 169/82/101 175/89/101 174/88/101
f 169/82/77 170/83/77 176/90/77 175/89/77
f 170/83/102 165/77/102 171/84/102 176/90/102
f 171/84/103 172/85/103 178/92/103 177/91/103
f 172/85/74 173/86/74 179/93/74 178/92/74
f 173/86/104 174/87/104 180/94/104 179/93/104
f 174/88/105 175/89/105 181/96/105 180/95/105
f 175/89/77 176/90/77 182/97/77 181/96/77
f 176/90/106 171/84/106 177/91/106 182/97/106
f 177/91/107 178/92/107 184/99/107 183/98/107
f 178/92/74 179/93/74 185/100/74 184/99/74
f 179/93/108 180/94/108 186/101/108 185/100/108
f 180/95/109 181/96/109 187/103/109 186/102/109
f 181/96/77 182/97/77 188/104/77 187/103/77
f 182/97/110 177/91/110 183/98/110 188/104/110
f 183/98/111 184/99/111 190/106/111 189/105/111
f 184/99/74 185/100/74 191/107/74 190/106/74
f 185/100/112 186/101/112 192/108/112 191/107/112
f 186/102/113 187/103/113 193/110/113 192/109/113
f 187/103/77 188/104/77 194/111/77 193/110/77
f 188/104/114 183/98/114 189/105/114 194/111/114
f 189/112/115 190/115/115 196/114/115 195/113/115
f 190/115/74 191/117/74 197/116/74 196/114/74
f 191/117/116 192/119/116 198/118/116 197/116/116
f 192/120/117 193/123/117 199/122/117 198/121/117
f 193/123/77 194/125/77 200/124/77 199/122/77
f 194/125/118 189/112/118 195/113/118 200/124/118
f 195/113/119 196/114/119 202/127/119 201/126/119
f 196/114/74 197/116/74 203/128/74 202/127/74
f 197/116/120 198/118/120 204/129/120 203/128/120
f 198/121/121 199/122/121 205/131/121 204/130/121
f 199/122/77 200/124/77 206/132/77 205/131/77
f 200/124/122 195/113/122 201/126/122 206/132/122
f 201/126/123 202/127/123 208/134/123 207/133/123
f 202/127/74 203/128/74 209/135/74 208/134/74
f 203/128/124 204/129/124 210/136/124 209/135/124
f 204/130/125 205/131/125 211/138/125 210/137/125
f 205/131/77 206/132/77 212/139/77 211/138/77
f 206/132/126 201/126/126 207/133/126 212/139/126
f 207/133/127 208/134/127 214/141/127 213/140/127
f 208/134/74 209/135/74 215/142/74 214/141/74
f 209/135/128 210/136/128 216/143/128 215/142/128
f 210/137/129 211/138/129 217/145/129 216/144/129
f 211/138/77 212/139/77 218/146/77 217/145/77
f 212/139/130 207/133/130 213/140/130 218/146/130
f 213/140/131 214/141/131 220/148/131 219/147/131
f 214/141/74 215/142/74 221/149/74 220/148/74
f 215/142/132 216/143/132 222/150/132 221/149/132
f 216/144/133 217/145/133 223/152/133 222/151/133
f 217/145/77 218/146/77 224/153/77 223/152/77
f 218/146/134 213/140/134 219/147/134 224/153/134
f 219/147/135 220/148/135 226/155/135 225/154/135
f 220/148/74 221/149/74 227/156/74 226/155/74
f 221/149/136 222/150/136 228/157/136 227/156/136
f 222/151/137 223/152/137 229/159/137 228/158/137
f 223/152/77 224/153/77 230/160/77 229/159/77
f 224/153/138 219/147/138 225/154/138 230/160/138
f 225/154/139 226/155/139 232/162/139 231/161/139
f 226/155/74 227/156/74 233/163/74 232/162/74
f 227/156/140 228/157/140 234/164/140 233/163/140
f 228/158/141 229/159/141 235/166/141 234/165/141
f 229/159/77 230/160/77 236/167/77 235/166/77
f 230/160/142 225/154/142 231/161/142 236/167/142
f 231/161/143 232/162/143 238/169/143 237/168/143
f 232/162/74 233/163/74 239/170/74 238/169/74
f 233/163/144 234/164/144 240/171/144 239/170/144
f 234/165/145 235/166/145 241/173/145 240/172/145
f 235/166/77 236/167/77 242/174/77 241/173/77
f 236/167/146 231/161/146 237/168/146 242/174/146
f 237/168/147 238/169/147 244/176/147 243/175/147
f 238/169/74 239/170/74 245/177/74 244/176/74
f 239/170/148 240/171/148 246/178/148 245/177/148
f 240/172/149 241/173/149 247/180/149 246/179/149
f 241/173/77 242/174/77 248/181/77 247/180/77
f 242/174/150 237/168/150 243/175/150 248/181/150
f 243/175/151 244/176/151 250/183/151 249/182/151
f 244/176/74 245/177/74 251/184/74 250/183/74
f 245/177/152 246/178/152 252/185/152 251/184/152
f 246/179/153 247/180/153 253/187/153 252/186/153
f 247/180/77 248/181/77 254/188/77 253/187/77
f 248/181/154 243/175/154 249/182/154 254/188/154
f 249/182/155 250/183/155 130/38/155 129/35/155
f 250/183/74 251/184/74 131/40/74 130/38/74
f 251/184/156 252/185/156 132/42/156 131/40/156
f 252/186/157 253/187/157 133/46/157 132/43/157
f 253/187/77 254/188/77 134/48/77 133/46/77
f 254/188/158 249/182/158 129/35/158 134/48/158
f 222/189/77 228/209/77 234/208/77 240/207/77 246/206/77 252/205/77 132/204/77 138/203/77 144/202/77 150/201/77 156/200/77 162/199/77 168/198/77 174/197/77 180/196/77 186/195/77 192/194/77 198/193/77 204/192/77 210/191/77 216/190/77
